<svg width="48" height="48" viewBox="0 0 48 48" fill="none" xmlns="http://www.w3.org/2000/svg">
<circle cx="24" cy="24" r="24" fill="url(#paint0_linear_75_154)"/>
<path d="M39.965 15.4249C40.1983 14.6499 39.965 14.0815 38.8617 14.0815H35.2067C34.2767 14.0815 33.8517 14.5732 33.6183 15.1132C33.6183 15.1132 31.76 19.6449 29.1267 22.5832C28.2767 23.4382 27.8883 23.7082 27.425 23.7082C27.1933 23.7082 26.8567 23.4382 26.8567 22.6632V15.4249C26.8567 14.4949 26.5883 14.0815 25.8133 14.0815H20.07C19.49 14.0815 19.14 14.5115 19.14 14.9215C19.14 15.8015 20.4567 16.0049 20.5917 18.4849V23.8649C20.5917 25.0432 20.38 25.2582 19.9133 25.2582C18.675 25.2582 15.6617 20.7099 13.8733 15.5032C13.525 14.4915 13.1733 14.0832 12.24 14.0832H8.58668C7.54168 14.0832 7.33334 14.5749 7.33334 15.1149C7.33334 16.0849 8.57168 20.8849 13.1017 27.2332C16.1217 31.5682 20.3733 33.9182 24.2467 33.9182C26.5683 33.9182 26.855 33.3965 26.855 32.4965V29.2199C26.855 28.1765 27.0767 27.9665 27.8117 27.9665C28.3517 27.9665 29.2817 28.2399 31.45 30.3282C33.9267 32.8049 34.3367 33.9165 35.7283 33.9165H39.3817C40.425 33.9165 40.9467 33.3949 40.6467 32.3649C40.3183 31.3399 39.135 29.8482 37.565 28.0832C36.7117 27.0765 35.4367 25.9932 35.0483 25.4515C34.5067 24.7532 34.6633 24.4449 35.0483 23.8249C35.05 23.8265 39.5017 17.5565 39.965 15.4249Z" fill="white"/>
<defs>
<linearGradient id="paint0_linear_75_154" x1="3.02498e-07" y1="24.3582" x2="48" y2="24.3582" gradientUnits="userSpaceOnUse">
<stop stop-color="#7CB4D8"/>
<stop offset="1" stop-color="#BFE6FF" stop-opacity="0"/>
</linearGradient>
</defs>
</svg>
