<svg width="48" height="48" viewBox="0 0 48 48" fill="none" xmlns="http://www.w3.org/2000/svg">
<circle cx="24" cy="24" r="24" fill="url(#paint0_linear_75_150)"/>
<path d="M24.5 10.7929C28.6386 10.7929 29.1288 10.8086 30.7632 10.8831C32.2745 10.9521 33.0952 11.2046 33.6415 11.4169C34.3649 11.6981 34.8812 12.034 35.4236 12.5764C35.9661 13.1188 36.3019 13.6351 36.5831 14.3585C36.7954 14.9048 37.0479 15.7255 37.1169 17.2367C37.1914 18.8712 37.2071 19.3614 37.2071 23.5C37.2071 27.6387 37.1914 28.1289 37.1169 29.7633C37.0479 31.2746 36.7954 32.0952 36.5831 32.6415C36.3019 33.3649 35.966 33.8814 35.4236 34.4237C34.8812 34.9661 34.3649 35.302 33.6415 35.5831C33.0952 35.7954 32.2745 36.048 30.7632 36.1169C29.1291 36.1915 28.6389 36.2072 24.5 36.2072C20.361 36.2072 19.8708 36.1915 18.2367 36.1169C16.7254 36.0479 15.9048 35.7954 15.3585 35.5831C14.6351 35.302 14.1186 34.9661 13.5763 34.4237C13.0339 33.8812 12.698 33.3649 12.4169 32.6415C12.2046 32.0954 11.952 31.2746 11.8831 29.7633C11.8085 28.1289 11.7928 27.6387 11.7928 23.5C11.7928 19.3614 11.8085 18.8712 11.8831 17.2368C11.9521 15.7255 12.2046 14.9048 12.4169 14.3585C12.698 13.6351 13.0339 13.1188 13.5763 12.5764C14.1188 12.0339 14.6351 11.6981 15.3585 11.4169C15.9046 11.2046 16.7254 10.9521 18.2367 10.8831C19.8711 10.8086 20.3613 10.7929 24.5 10.7929ZM24.5 8C20.2904 8 19.7626 8.0178 18.1094 8.09324C16.4595 8.16856 15.3327 8.43061 14.3469 8.81375C13.3275 9.20985 12.4632 9.73987 11.6015 10.6016C10.7398 11.4633 10.2098 12.3276 9.81375 13.3469C9.43049 14.3328 9.16856 15.4596 9.09324 17.1094C9.0178 18.7626 9 19.2904 9 23.5C9 27.7096 9.0178 28.2374 9.09324 29.8906C9.16856 31.5405 9.43049 32.6673 9.81375 33.6531C10.2097 34.6724 10.7398 35.5368 11.6015 36.3985C12.4632 37.2602 13.3275 37.7902 14.3469 38.1863C15.3328 38.5695 16.4595 38.8314 18.1093 38.9068C19.7626 38.9822 20.2904 39 24.5 39C28.7096 39 29.2374 38.9822 30.8906 38.9068C32.5404 38.8314 33.6672 38.5695 34.653 38.1863C35.6723 37.7903 36.5367 37.2602 37.3984 36.3985C38.2601 35.5368 38.7902 34.6725 39.1863 33.6531C39.5694 32.6672 39.8314 31.5405 39.9068 29.8907C39.9822 28.2374 40 27.7096 40 23.5C40 19.2904 39.9822 18.7626 39.9068 17.1094C39.8314 15.4596 39.5694 14.3328 39.1863 13.347C38.7902 12.3276 38.2601 11.4633 37.3984 10.6016C36.5367 9.73987 35.6724 9.20973 34.6531 8.81375C33.6672 8.43061 32.5404 8.16856 30.8906 8.09324C29.2374 8.0178 28.7096 8 24.5 8ZM24.5 15.5405C20.1041 15.5405 16.5405 19.1043 16.5405 23.5C16.5405 27.8959 20.1041 31.4595 24.5 31.4595C28.8958 31.4595 32.4595 27.8959 32.4595 23.5C32.4595 19.1042 28.8958 15.5405 24.5 15.5405ZM24.5 28.6667C21.6465 28.6667 19.3333 26.3535 19.3333 23.5C19.3333 20.6465 21.6465 18.3333 24.5 18.3333C27.3535 18.3333 29.6667 20.6465 29.6667 23.5C29.6667 26.3535 27.3535 28.6667 24.5 28.6667ZM34.6339 15.226C34.6339 16.2534 33.8012 17.086 32.7739 17.086C31.7466 17.086 30.9139 16.2534 30.9139 15.226C30.9139 14.1988 31.7466 13.366 32.7739 13.366C33.8012 13.366 34.6339 14.1988 34.6339 15.226Z" fill="white"/>
<defs>
<linearGradient id="paint0_linear_75_150" x1="3.02498e-07" y1="24.3582" x2="48" y2="24.3582" gradientUnits="userSpaceOnUse">
<stop stop-color="#7CB4D8"/>
<stop offset="1" stop-color="#BFE6FF" stop-opacity="0"/>
</linearGradient>
</defs>
</svg>
