<svg width="48" height="48" viewBox="0 0 48 48" fill="none" xmlns="http://www.w3.org/2000/svg">
<circle cx="24" cy="24" r="24" fill="url(#paint0_linear_75_145)"/>
<path d="M37.75 12.7499C36.553 13.5942 35.2276 14.24 33.825 14.6624C33.0722 13.7968 32.0717 13.1832 30.9588 12.9048C29.8459 12.6263 28.6744 12.6964 27.6026 13.1054C26.5308 13.5145 25.6106 14.2429 24.9662 15.192C24.3219 16.1412 23.9846 17.2653 24 18.4124V19.6624C21.8033 19.7193 19.6266 19.2321 17.6638 18.2442C15.7009 17.2562 14.0129 15.7982 12.75 13.9999C12.75 13.9999 7.75 25.2499 19 30.2499C16.4257 31.9973 13.3589 32.8735 10.25 32.7499C21.5 38.9999 35.25 32.7499 35.25 18.3749C35.2488 18.0267 35.2154 17.6794 35.15 17.3374C36.4258 16.0792 37.326 14.4908 37.75 12.7499V12.7499Z" stroke="white" stroke-width="2" stroke-linecap="round" stroke-linejoin="round"/>
<defs>
<linearGradient id="paint0_linear_75_145" x1="3.02498e-07" y1="24.3582" x2="48" y2="24.3582" gradientUnits="userSpaceOnUse">
<stop stop-color="#7CB4D8"/>
<stop offset="1" stop-color="#BFE6FF" stop-opacity="0"/>
</linearGradient>
</defs>
</svg>
