<svg width="36" height="36" viewBox="0 0 36 36" fill="none" xmlns="http://www.w3.org/2000/svg">
<path d="M18 6.59265C19.5127 6.59265 20.9635 7.19358 22.0331 8.26323C23.1028 9.33288 23.7037 10.7836 23.7037 12.2964C23.7037 13.8091 23.1028 15.2598 22.0331 16.3295C20.9635 17.3991 19.5127 18.0001 18 18.0001C16.4873 18.0001 15.0365 17.3991 13.9669 16.3295C12.8972 15.2598 12.2963 13.8091 12.2963 12.2964C12.2963 10.7836 12.8972 9.33288 13.9669 8.26323C15.0365 7.19358 16.4873 6.59265 18 6.59265ZM18 20.8519C24.3026 20.8519 29.4074 23.4043 29.4074 26.5556V29.4075H6.59259V26.5556C6.59259 23.4043 11.6974 20.8519 18 20.8519Z" fill="white"/>
</svg>
