<svg width="39" height="54" viewBox="0 0 39 54" fill="none" xmlns="http://www.w3.org/2000/svg">
<path d="M19.4324 29.2751C17.3815 29.2751 15.7189 30.8844 15.7189 32.8694C15.7189 34.2105 16.4778 35.3801 17.6026 35.9978C18.1427 36.2944 18.7671 36.4637 19.4324 36.4637C20.0977 36.4637 20.7222 36.2944 21.2622 35.9978C22.387 35.3801 23.1459 34.2105 23.1459 32.8694C23.1459 30.8844 21.4833 29.2751 19.4324 29.2751Z" fill="#1B567C"/>
<path d="M19.4324 36.4637C18.7671 36.4637 18.1427 36.2944 17.6026 35.9978L16.8491 41.6207H21.9081L21.2622 35.9978C20.7222 36.2944 20.0977 36.4637 19.4324 36.4637Z" fill="#1B567C"/>
<path fill-rule="evenodd" clip-rule="evenodd" d="M14.804 0C12.0234 0.382002 6.46213 2.9171 6.46213 10.0015V18.8569C4.30939 18.6139 0.003905 19.2112 0.003905 23.5451V47.7674C-0.0678531 49.6254 0.821947 53.3412 4.95521 53.3412H32.026C33.6943 53.3412 38.7533 52.4035 38.9147 48.4446C39.0762 44.4857 38.9685 26.358 38.9147 23.5451C38.8609 20.7322 35.6318 18.8569 32.4565 18.8569V10.0015C32.4565 4.58401 27.7205 0 24.007 0H14.804ZM9.79888 10.0015V18.8569H29.2812V10.0015C29.2812 7.29275 26.967 3.17756 24.007 3.17756C20.2397 3.17756 19.9706 3.02128 14.804 3.17756C10.6707 3.30257 9.74506 7.77893 9.79888 10.0015ZM4.26562 23.1145H19.5939H34.125V49.1924H4.26562V35.8647V23.1145Z" fill="#1B567C"/>
</svg>
