<svg width="53" height="56" viewBox="0 0 53 56" fill="none" xmlns="http://www.w3.org/2000/svg">
<path fill-rule="evenodd" clip-rule="evenodd" d="M8.60203 29.9883V2.41032C8.60203 1.63566 9.04806 0.0863319 10.8322 0.0863319H41.5765C42.373 0.0346877 43.9659 0.427184 43.9659 2.41032V29.9883L51.1343 30.1433C51.6653 30.1949 52.7273 30.67 52.7273 32.1574C52.7273 34.0166 51.7715 34.0166 49.5413 36.0307C47.7572 37.642 34.6736 49.2 28.3548 54.7775C27.9832 55.0874 27.0486 55.7071 26.284 55.7071C25.3282 55.7071 24.8503 55.2423 24.2131 54.7775C23.7034 54.4057 9.87641 42.1247 3.02664 36.0307C0.637188 33.9049 -4.48585e-06 33.2419 0 32.1574C5.76752e-06 30.763 0.796473 30.1433 1.91156 30.1433C2.80362 30.1433 6.74357 30.04 8.60203 29.9883ZM13.0623 34.4814V4.42444H39.5056V34.4814H44.7624L26.284 50.7493L7.64625 34.4814H13.0623Z" fill="#1B567C"/>
<path d="M29.3007 29.2276C29.3007 28.4336 29.0717 27.8042 28.6137 27.3394C28.1657 26.8649 27.3991 26.4291 26.3139 26.0321C25.2287 25.6351 24.2928 25.2429 23.5063 24.8556C22.7197 24.4586 22.0427 24.0083 21.4752 23.5048C20.9177 22.9916 20.4796 22.3912 20.161 21.7037C19.8524 21.0162 19.6981 20.198 19.6981 19.249C19.6981 17.6125 20.2357 16.2714 21.311 15.2256C22.3862 14.1798 23.8149 13.5697 25.597 13.3954V10.2871H27.9865V13.439C29.7487 13.6811 31.1276 14.3977 32.1232 15.5887C33.1188 16.7701 33.6166 18.3049 33.6166 20.1931H29.3007C29.3007 19.0311 29.0518 18.1645 28.554 17.5931C28.0661 17.0122 27.409 16.7217 26.5827 16.7217C25.7663 16.7217 25.1341 16.9492 24.6861 17.4043C24.238 17.8498 24.014 18.4695 24.014 19.2635C24.014 19.9994 24.2331 20.5901 24.6711 21.0356C25.1092 21.481 25.9206 21.9361 27.1054 22.4009C28.3001 22.8657 29.2808 23.3063 30.0474 23.7227C30.814 24.1294 31.4612 24.5942 31.9888 25.1171C32.5165 25.6303 32.9197 26.221 33.1985 26.8891C33.4773 27.5476 33.6166 28.3174 33.6166 29.1986C33.6166 30.8447 33.089 32.181 32.0336 33.2074C30.9783 34.2339 29.5247 34.8391 27.6729 35.0231V37.9135H25.2984V35.0376C23.2574 34.8246 21.6744 34.1225 20.5493 32.9315C19.4342 31.7307 18.8767 30.1378 18.8767 28.1528H23.1927C23.1927 29.3051 23.4714 30.1911 24.029 30.8108C24.5965 31.4209 25.4079 31.7259 26.4632 31.7259C27.3394 31.7259 28.0313 31.5032 28.5391 31.0578C29.0468 30.6026 29.3007 29.9926 29.3007 29.2276Z" fill="#1B567C"/>
</svg>
