<svg width="57" height="57" viewBox="0 0 57 57" fill="none" xmlns="http://www.w3.org/2000/svg">
<path fill-rule="evenodd" clip-rule="evenodd" d="M40.0281 33.9313L43.5506 30.5054L47.073 33.9313H53.1573V39.5375L57 43.2749L53.1573 47.3237V52.6184H47.3933L43.5506 56.3558L40.0281 52.6184H34.264V47.0123L30.4214 43.2749L34.264 39.5375V33.9313H40.0281ZM43.5506 35.8L41.309 37.9802H38.1067V41.0947L35.5449 43.2749L38.1067 45.7665V48.881H41.309L43.5506 51.0612L45.7921 48.881H49.3146V45.7665L51.5562 43.2749L49.3146 41.0947V37.9802H45.7921L43.5506 35.8Z" fill="#1B567C"/>
<path fill-rule="evenodd" clip-rule="evenodd" d="M15.0506 8.08086H5.1236C3.41573 8.08086 0 8.95293 0 12.4412V43.2749C0 45.455 0.640449 48.881 5.1236 48.881H30.4214L26.8989 45.1436H5.1236C3.8427 45.1436 3.8427 43.8978 3.8427 42.652V33.9313V30.5054V13.9984C3.8427 13.0641 4.16292 11.8183 5.1236 11.8183H47.7135C48.3539 11.9221 49.6348 12.6281 49.6348 14.6213V30.1939H53.1573V13.0641C53.1573 11.8183 51.8764 8.08086 47.7135 8.08086H38.1067V5.9007C38.1067 4.6549 36.5056 0.91748 32.9831 0.91748H19.8539C17.9326 0.91748 15.0506 2.78619 15.0506 6.52361V8.08086ZM34.264 8.08086H18.8933C18.8933 4.96635 20.4944 4.6549 22.4157 4.6549H31.0618C34.3921 4.6549 34.5843 6.93887 34.264 8.08086Z" fill="#1B567C"/>
<path d="M30.4214 30.5054H3.8427V33.9313H30.4214V30.5054Z" fill="#1B567C"/>
<path d="M22.736 23.0305V26.4565H30.4214V23.0305H22.736Z" fill="#1B567C"/>
</svg>
