<svg width="88" height="88" viewBox="0 0 88 88" fill="none" xmlns="http://www.w3.org/2000/svg">
<circle cx="44" cy="44" r="44" fill="url(#paint0_linear_42_47)"/>
<path d="M74.6313 13.9781C74.6027 13.8399 74.5354 13.7127 74.4372 13.6115C74.3389 13.5102 74.2138 13.439 74.0766 13.4062C64.925 11.1687 43.7797 19.1422 32.3235 30.5937C30.2801 32.6206 28.4174 34.8216 26.7563 37.1719C23.2235 36.8594 19.6906 37.1203 16.6797 38.4328C8.18439 42.1719 5.71095 51.9281 5.02189 56.125C4.98281 56.3547 4.99755 56.5904 5.06496 56.8134C5.13237 57.0365 5.25061 57.2408 5.41038 57.4104C5.57015 57.5801 5.76709 57.7103 5.98572 57.7909C6.20434 57.8715 6.43869 57.9003 6.67033 57.875L20.3125 56.3703C20.3223 57.3988 20.3843 58.4262 20.4985 59.4484C20.5671 60.1583 20.8822 60.8217 21.3891 61.3234L26.6719 66.5937C27.1741 67.0999 27.8372 67.4149 28.5469 67.4844C29.5634 67.5981 30.585 67.6601 31.6078 67.6703L30.111 81.2953C30.086 81.5269 30.115 81.7611 30.1957 81.9795C30.2764 82.198 30.4067 82.3948 30.5762 82.5545C30.7458 82.7142 30.95 82.8325 31.1729 82.9C31.3958 82.9675 31.6313 82.9825 31.861 82.9437C36.05 82.2719 45.8235 79.7984 49.5406 71.3031C50.8531 68.2922 51.1219 64.7766 50.8188 61.2609C53.1747 59.5997 55.3815 57.7364 57.4141 55.6922C68.9063 44.2578 76.8344 23.5844 74.6313 13.9781ZM45.9485 42.0516C44.8991 41.0029 44.1843 39.6665 43.8945 38.2115C43.6047 36.7565 43.7529 35.2483 44.3204 33.8775C44.888 32.5068 45.8493 31.3352 47.0827 30.5108C48.3162 29.6865 49.7664 29.2465 51.25 29.2465C52.7336 29.2465 54.1838 29.6865 55.4173 30.5108C56.6508 31.3352 57.6121 32.5068 58.1796 33.8775C58.7471 35.2483 58.8953 36.7565 58.6055 38.2115C58.3158 39.6665 57.601 41.0029 56.5516 42.0516C55.8557 42.7484 55.0293 43.3012 54.1196 43.6784C53.2099 44.0556 52.2348 44.2498 51.25 44.2498C50.2652 44.2498 49.2901 44.0556 48.3804 43.6784C47.4707 43.3012 46.6443 42.7484 45.9485 42.0516Z" fill="#1B567C"/>
<path d="M26.3125 70.4109C25.4562 71.2688 24.0828 71.6031 22.4297 71.8891C18.7156 72.5219 15.4359 69.3125 16.1031 65.5578C16.3578 64.1344 17.1109 62.1391 17.5797 61.6703C17.6821 61.5698 17.7503 61.4396 17.7746 61.2982C17.7988 61.1568 17.7779 61.0113 17.7148 60.8824C17.6516 60.7535 17.5495 60.6478 17.4229 60.5803C17.2962 60.5128 17.1516 60.4869 17.0094 60.5063C14.9324 60.7604 13.0002 61.702 11.5203 63.1813C7.84688 66.8578 7.5 80.5 7.5 80.5C7.5 80.5 21.15 80.1531 24.8234 76.4766C26.3073 74.9979 27.2501 73.0627 27.5 70.9828C27.5578 70.3297 26.7625 69.9406 26.3125 70.4109Z" fill="#1B567C"/>
<defs>
<linearGradient id="paint0_linear_42_47" x1="44" y1="0" x2="44" y2="88" gradientUnits="userSpaceOnUse">
<stop stop-color="#67A8D2" stop-opacity="0.88"/>
<stop offset="1" stop-color="#67A8D2" stop-opacity="0"/>
</linearGradient>
</defs>
</svg>
