<svg width="240" height="340" viewBox="0 0 240 340" fill="none" xmlns="http://www.w3.org/2000/svg">
<g opacity="0.2">
<path d="M2.47229 259.155C6.41932 258.307 10.0504 256.372 12.9546 253.568C15.8588 250.764 17.9202 247.203 18.9056 243.288C24.0056 241.966 28.9167 240.266 33.9223 238.472V227.138C33.9616 225.519 34.1513 223.906 34.489 222.322C28.8714 224.588 23.133 226.543 17.3001 228.177C15.2619 224.143 12.0061 220.852 7.99377 218.772C3.98145 216.691 -0.583895 215.925 -5.05549 216.584C-9.52709 217.242 -13.6782 219.29 -16.9208 222.439C-20.1633 225.588 -22.3329 229.677 -23.1222 234.127H-27.3722C-43.8952 214.946 -53.4768 190.759 -54.5722 165.466C-41.8801 147.677 -25.8398 132.535 -7.34993 120.888C-4.59905 123.702 -1.11474 125.69 2.70793 126.624C6.53061 127.559 10.5387 127.404 14.2779 126.177C25.3589 144.356 39.6657 160.359 56.4945 173.399C57.1111 172.606 57.7733 171.849 58.4779 171.133L67.4501 162.538C50.9698 150.245 37.0197 134.884 26.3667 117.299C28.5075 113.905 29.6528 109.979 29.6723 105.966V103.888C64.2031 92.2843 101.58 92.2843 136.111 103.888C133.565 114.743 129.926 125.311 125.25 135.433H141.778C145.286 127.099 148.159 118.511 150.372 109.744C154.433 111.538 158.306 113.616 162.272 115.788C167.684 128.003 170.882 141.082 171.717 154.416C175.278 152.423 179.256 151.291 183.333 151.11C185.505 151.153 187.663 151.471 189.756 152.055C188.089 126.579 179.082 102.131 163.823 81.6627C148.564 61.1943 127.706 45.5811 103.768 36.7084C79.8289 27.8358 53.8334 26.0833 28.9205 31.6625C4.00747 37.2417 -18.7576 49.914 -36.6256 68.1492C-54.4935 86.3843 -66.7003 109.402 -71.7717 134.424C-76.8431 159.445 -74.5622 185.399 -65.2046 209.153C-55.847 232.906 -39.8128 253.442 -19.0383 268.282C1.73622 283.121 26.3625 291.629 51.8667 292.777C49.4679 286.709 49.4679 279.956 51.8667 273.888C34.4847 272.86 17.5775 267.817 2.47229 259.155V259.155ZM58.289 47.2216C73.4672 47.2445 88.4861 50.316 102.455 56.2539C116.423 62.1917 129.057 70.8749 139.606 81.7883C139.606 84.1494 139.606 86.6049 138.85 88.966C100.916 76.4639 59.9165 76.8291 22.2112 90.0049C19.0053 87.2622 15.0644 85.5216 10.8778 84.9994C8.34974 77.1935 6.42373 69.2052 5.11674 61.1049C21.4218 52.1558 39.6902 47.3859 58.289 47.2216V47.2216ZM-8.7666 69.5105C-7.54522 75.6324 -6.00047 81.6853 -4.13882 87.6438C-7.22839 89.5784 -9.77629 92.2656 -11.5438 95.4536C-13.3113 98.6417 -14.2405 102.226 -14.2444 105.872V107.288C-28.5146 116.267 -41.4807 127.167 -52.7777 139.683C-47.4868 111.577 -31.7654 86.5103 -8.7666 69.5105V69.5105Z" fill="#67A8D2"/>
<path d="M136.111 200.128C128.943 200.202 121.957 202.4 116.037 206.443C110.117 210.486 105.528 216.192 102.85 222.842C100.171 229.491 99.5236 236.785 100.988 243.803C102.453 250.82 105.965 257.246 111.08 262.269C116.195 267.292 122.684 270.686 129.727 272.023C136.77 273.36 144.051 272.579 150.65 269.78C157.25 266.981 162.872 262.289 166.807 256.296C170.741 250.304 172.811 243.279 172.755 236.111C172.606 226.499 168.677 217.334 161.818 210.599C154.96 203.863 145.724 200.102 136.111 200.128V200.128ZM136.111 257.55C131.956 257.475 127.915 256.178 124.492 253.821C121.069 251.464 118.417 248.151 116.865 244.296C115.313 240.441 114.932 236.214 115.767 232.143C116.603 228.072 118.619 224.338 121.564 221.406C124.509 218.473 128.253 216.474 132.327 215.656C136.402 214.838 140.627 215.238 144.475 216.807C148.324 218.375 151.625 221.043 153.967 224.476C156.309 227.909 157.588 231.955 157.644 236.111C157.657 238.938 157.108 241.739 156.029 244.352C154.95 246.965 153.363 249.338 151.36 251.332C149.356 253.327 146.977 254.903 144.359 255.971C141.741 257.038 138.938 257.575 136.111 257.55V257.55Z" fill="#67A8D2"/>
<path d="M222.717 227.989C222.809 225.789 222.225 223.613 221.043 221.756C219.861 219.898 218.138 218.448 216.106 217.6L201.372 213.255C200.68 211.24 199.861 209.257 198.917 207.305L205.717 194.744C206.785 192.7 207.169 190.368 206.812 188.089C206.455 185.811 205.376 183.707 203.733 182.089L191.078 169.622C189.448 167.995 187.339 166.933 185.061 166.593C182.783 166.253 180.456 166.653 178.422 167.733L165.767 174.439C163.703 173.452 161.591 172.57 159.439 171.794L155 157.816C154.255 155.709 152.873 153.886 151.045 152.6C149.217 151.314 147.035 150.628 144.8 150.639H126.667C124.385 150.655 122.168 151.395 120.335 152.753C118.501 154.111 117.147 156.016 116.467 158.194L112.311 171.7C110.127 172.473 107.984 173.356 105.889 174.344L93.4222 167.733C91.4082 166.663 89.1066 166.261 86.8492 166.583C84.5917 166.906 82.4949 167.937 80.861 169.527L67.9222 181.9C66.2587 183.525 65.1664 185.646 64.8089 187.945C64.4514 190.243 64.8478 192.595 65.9388 194.65L72.5499 206.739C71.5425 208.753 70.661 210.8 69.9055 212.877L56.5888 217.222C54.3703 217.877 52.4246 219.235 51.0449 221.092C49.6652 222.948 48.926 225.203 48.9388 227.516V245.177C49.0461 247.417 49.85 249.568 51.2384 251.328C52.6268 253.089 54.5303 254.373 56.6833 255L70.5666 259.155C71.3222 261.17 72.2036 263.185 73.211 265.2L66.4111 277.95C65.3083 279.994 64.8964 282.341 65.2368 284.639C65.5773 286.936 66.6518 289.063 68.2999 290.7L80.9555 303.166C82.5855 304.793 84.6944 305.855 86.9722 306.195C89.2501 306.535 91.5769 306.135 93.611 305.055L106.55 298.255C108.502 299.137 110.485 299.955 112.5 300.711L116.655 314.594C117.341 316.787 118.709 318.703 120.562 320.063C122.414 321.422 124.652 322.153 126.95 322.15H144.894C147.16 322.114 149.356 321.364 151.17 320.007C152.984 318.651 154.325 316.757 155 314.594L159.156 300.711C161.139 300.05 163.122 299.2 165.011 298.35L178.044 305.244C180.068 306.302 182.375 306.689 184.633 306.349C186.891 306.01 188.983 304.961 190.606 303.355L203.261 290.889C204.925 289.263 206.017 287.142 206.374 284.844C206.732 282.545 206.335 280.193 205.244 278.139L198.35 265.483C199.231 263.594 200.018 261.705 200.711 259.816L214.878 255.661C217.101 255.049 219.066 253.734 220.479 251.912C221.892 250.091 222.677 247.86 222.717 245.555V227.989ZM207.606 242.155L188.717 247.633L187.583 251.6C186.536 255.172 185.112 258.623 183.333 261.894L181.35 265.483L190.794 282.389L182.672 290.322L165.483 280.877L161.989 282.766C158.625 284.581 155.079 286.037 151.411 287.111L147.444 288.244L141.872 307.133H130.255L124.683 288.716L120.717 287.583C117.021 286.54 113.445 285.116 110.044 283.333L106.55 281.444L89.4555 290.889L81.3333 282.861L90.7777 265.672L88.6999 262.083C86.7696 258.707 85.2177 255.128 84.0722 251.411L82.8444 247.539L64.4277 242.061V230.633L82.7499 225.155L83.8833 221.283C85.017 217.532 86.5694 213.92 88.511 210.516L90.5888 206.833L81.1444 190.494L89.361 182.561L106.078 191.439L109.667 189.455C113.17 187.513 116.875 185.961 120.717 184.827L124.589 183.694L130.161 165.655H141.778L147.255 183.6L151.128 184.733C154.933 185.843 158.607 187.363 162.083 189.266L165.672 191.25L182.672 182.277L190.794 190.305L181.35 207.022L183.333 210.611C185.203 213.993 186.692 217.572 187.772 221.283L188.906 225.25L207.133 230.633L207.606 242.155Z" fill="#67A8D2"/>
</g>
</svg>
