<svg width="173" height="170" viewBox="0 0 173 170" fill="none" xmlns="http://www.w3.org/2000/svg">
<path d="M20.5 99.5L20.6163 98.5068L20.5 99.5ZM47 139.5L46.3966 140.297L47 139.5ZM173 163L162.761 157.661L163.257 169.197L173 163ZM-24.9929 0.88128C-25.1208 1.9505 -25.2396 3.05779 -25.348 4.19941L-23.357 4.38851C-23.25 3.26258 -23.1329 2.17141 -23.0071 1.11872L-24.9929 0.88128ZM-25.8345 10.864C-25.9465 13.0162 -26.0207 15.2499 -26.05 17.5463L-24.0502 17.5719C-24.0212 15.3018 -23.9479 13.0943 -23.8372 10.968L-25.8345 10.864ZM-26.0072 24.2223C-25.951 26.4129 -25.8519 28.6417 -25.7048 30.8943L-23.709 30.7639C-23.8544 28.5386 -23.9523 26.3362 -24.0079 24.171L-26.0072 24.2223ZM-25.1302 37.5559C-24.8925 39.7613 -24.6051 41.9763 -24.2632 44.1884L-22.2867 43.8829C-22.6236 41.7028 -22.9071 39.5181 -23.1417 37.3416L-25.1302 37.5559ZM-23.0749 50.7751C-22.6199 52.9676 -22.1054 55.1448 -21.5267 57.294L-19.5955 56.7739C-20.1634 54.6648 -20.669 52.5255 -21.1167 50.3686L-23.0749 50.7751ZM-19.5709 63.7081C-18.8373 65.8455 -18.0302 67.9403 -17.1443 69.9783L-15.3101 69.181C-16.1734 67.1951 -16.9615 65.1499 -17.6792 63.0588L-19.5709 63.7081ZM-14.1798 76.0249C-13.0818 78.0143 -11.8914 79.927 -10.6023 81.7465L-8.97041 80.5903C-10.2131 78.8363 -11.3642 76.9874 -12.4288 75.0585L-14.1798 76.0249ZM-6.3438 87.0047C-4.80011 88.6671 -3.14457 90.2125 -1.37047 91.6224L-0.126135 90.0567C-1.81721 88.7127 -3.39924 87.2365 -4.87821 85.6438L-6.3438 87.0047ZM4.27345 95.4045C6.21975 96.488 8.28055 97.4268 10.4611 98.2053L11.1335 96.3217C9.05725 95.5805 7.09689 94.6872 5.24627 93.657L4.27345 95.4045ZM17.0173 99.9782C18.114 100.187 19.2359 100.359 20.3837 100.493L20.6163 98.5068C19.515 98.3778 18.44 98.2128 17.3908 98.0134L17.0173 99.9782ZM20.3837 100.493C21.718 100.649 23.012 100.776 24.2668 100.873L24.421 98.8785C23.1935 98.7836 21.9256 98.6601 20.6163 98.5068L20.3837 100.493ZM32.0131 101.105C34.8366 101.041 37.4126 100.799 39.7575 100.402L39.4231 98.43C37.1841 98.8097 34.7055 99.0434 31.9676 99.1058L32.0131 101.105ZM47.3038 98.3017C50.0175 97.1825 52.2558 95.7684 54.0682 94.1319L52.7278 92.6475C51.1008 94.1167 49.0624 95.413 46.5413 96.4528L47.3038 98.3017ZM58.7396 87.6266C59.813 85.1286 60.3171 82.4722 60.3841 79.8203L58.3848 79.7697C58.3232 82.2038 57.8615 84.6042 56.9021 86.8371L58.7396 87.6266ZM59.3912 71.97C58.6718 69.3333 57.605 66.8485 56.3255 64.6913L54.6053 65.7115C55.7926 67.7133 56.7893 70.0318 57.4617 72.4964L59.3912 71.97ZM51.0642 58.6599C49.8141 57.7728 48.4772 57.1701 47.1191 57.0071L46.8809 58.9929C47.8182 59.1054 48.8442 59.5369 49.9067 60.2909L51.0642 58.6599ZM47.1191 57.0071C45.8489 56.8547 44.5484 57.1783 43.2877 57.8243L44.1997 59.6043C45.2162 59.0835 46.1132 58.9008 46.8809 58.9929L47.1191 57.0071ZM37.903 62.543C36.5716 64.1838 35.2726 66.1427 34.0564 68.354L35.8088 69.3178C36.9773 67.1932 38.2116 65.3368 39.456 63.8032L37.903 62.543ZM31.1203 74.6116C30.2991 76.6721 29.5543 78.8625 28.9117 81.1532L30.8374 81.6933C31.461 79.47 32.1833 77.3465 32.9782 75.3521L31.1203 74.6116ZM27.3897 87.8706C27.0023 90.0976 26.7191 92.3857 26.5599 94.7128L28.5553 94.8493C28.7095 92.5941 28.9841 90.3748 29.3601 88.2133L27.3897 87.8706ZM26.4663 101.612C26.5635 103.892 26.7922 106.19 27.17 108.484L29.1434 108.159C28.7793 105.948 28.5585 103.731 28.4645 101.527L26.4663 101.612ZM28.7336 115.224C29.3961 117.409 30.2129 119.572 31.1998 121.697L33.0137 120.855C32.0678 118.818 31.2839 116.742 30.6475 114.644L28.7336 115.224ZM34.5638 127.751C35.8008 129.639 37.1969 131.478 38.7643 133.252L40.2633 131.928C38.7598 130.226 37.4217 128.464 36.2368 126.655L34.5638 127.751ZM43.6943 138.115C44.5573 138.859 45.4577 139.587 46.3966 140.297L47.6034 138.703C46.6981 138.017 45.8308 137.316 45.0002 136.6L43.6943 138.115ZM46.3966 140.297C47.3599 141.026 48.3608 141.734 49.3964 142.421L50.5017 140.754C49.4987 140.089 48.5319 139.405 47.6034 138.703L46.3966 140.297ZM55.7101 146.141C57.8138 147.246 60.0174 148.288 62.3058 149.269L63.094 147.431C60.849 146.468 58.6932 145.449 56.6404 144.37L55.7101 146.141ZM69.0923 151.922C71.3418 152.724 73.6526 153.478 76.013 154.186L76.5878 152.27C74.2572 151.571 71.979 150.828 69.764 150.038L69.0923 151.922ZM83.028 156.125C85.3519 156.715 87.7113 157.267 90.0961 157.783L90.5185 155.828C88.1556 155.317 85.8198 154.771 83.5207 154.186L83.028 156.125ZM97.219 159.202C99.5917 159.638 101.98 160.04 104.375 160.411L104.681 158.434C102.303 158.066 99.9334 157.667 97.5798 157.235L97.219 159.202ZM111.558 161.431C113.964 161.743 116.367 162.025 118.758 162.28L118.97 160.292C116.593 160.038 114.205 159.757 111.815 159.448L111.558 161.431ZM125.98 162.974C128.415 163.182 130.827 163.364 133.208 163.52L133.339 161.525C130.971 161.369 128.572 161.188 126.151 160.981L125.98 162.974ZM140.441 163.927C142.91 164.042 145.332 164.132 147.692 164.198L147.748 162.198C145.4 162.133 142.991 162.044 140.534 161.929L140.441 163.927ZM154.943 164.332C157.462 164.354 159.886 164.35 162.195 164.323L162.172 162.323C159.876 162.35 157.466 162.354 154.961 162.332L154.943 164.332Z" fill="#67A8D2"/>
</svg>
