<svg width="195" height="185" viewBox="0 0 195 185" fill="none" xmlns="http://www.w3.org/2000/svg">
<path d="M104 106.5L104.996 106.584L104 106.5ZM32.9999 117.5L32.8186 116.517L32.8063 116.519L32.7939 116.521L32.9999 117.5ZM-6.10352e-05 129.5L11.5405 129.885L6.10373 119.698L-6.10352e-05 129.5ZM8.30264 126.544C9.9376 125.829 11.7443 125.08 13.6931 124.328L12.9728 122.462C10.9958 123.225 9.16189 123.985 7.50085 124.712L8.30264 126.544ZM19.1741 122.345C20.9562 121.743 22.8153 121.156 24.7352 120.601L24.1795 118.679C22.2295 119.243 20.3422 119.839 18.5339 120.45L19.1741 122.345ZM30.3666 119.115C31.304 118.892 32.251 118.68 33.2059 118.479L32.7939 116.521C31.8214 116.726 30.8575 116.943 29.9039 117.17L30.3666 119.115ZM33.1812 118.483C34.3908 118.26 35.59 118.048 36.7788 117.847L36.4446 115.875C35.2462 116.078 34.0375 116.292 32.8186 116.517L33.1812 118.483ZM43.9001 116.748C46.3286 116.411 48.7114 116.12 51.049 115.873L50.8386 113.884C48.4791 114.133 46.0748 114.427 43.6252 114.767L43.9001 116.748ZM58.2234 115.239C60.6747 115.067 63.0725 114.944 65.4176 114.869L65.3535 112.87C62.9824 112.946 60.5592 113.07 58.083 113.244L58.2234 115.239ZM72.6213 114.785C75.0835 114.809 77.4826 114.887 79.8193 115.015L79.9292 113.018C77.5617 112.888 75.1323 112.809 72.6404 112.786L72.6213 114.785ZM86.9903 115.587C89.4374 115.844 91.8091 116.159 94.1064 116.528L94.4236 114.554C92.0897 114.179 89.682 113.859 87.1994 113.598L86.9903 115.587ZM101.142 117.872C103.558 118.411 105.881 119.011 108.113 119.667L108.676 117.748C106.401 117.079 104.035 116.468 101.577 115.92L101.142 117.872ZM114.897 121.927C117.215 122.797 119.418 123.729 121.508 124.713L122.36 122.904C120.22 121.896 117.968 120.943 115.6 120.055L114.897 121.927ZM127.824 128.038C129.957 129.29 131.945 130.597 133.791 131.947L134.971 130.332C133.07 128.942 131.026 127.598 128.836 126.313L127.824 128.038ZM139.303 136.467C141.13 138.152 142.765 139.873 144.213 141.605L145.747 140.323C144.243 138.522 142.548 136.739 140.658 134.996L139.303 136.467ZM148.347 147.373C149.645 149.524 150.665 151.648 151.42 153.699L153.297 153.008C152.495 150.831 151.419 148.592 150.06 146.34L148.347 147.373ZM153.005 160.481C153.111 161.686 153.109 162.83 153.005 163.903L154.995 164.097C155.113 162.891 155.114 161.622 154.997 160.304L153.005 160.481ZM153.005 163.903C152.907 164.9 152.667 165.932 152.292 166.98L154.176 167.653C154.598 166.471 154.88 165.278 154.995 164.097L153.005 163.903ZM149.07 172.617C147.754 174.28 146.164 175.853 144.376 177.241L145.602 178.821C147.513 177.338 149.219 175.652 150.638 173.858L149.07 172.617ZM138.731 180.648C136.717 181.551 134.603 182.192 132.457 182.493L132.735 184.474C135.087 184.144 137.383 183.445 139.55 182.472L138.731 180.648ZM126.001 182.304C123.981 181.876 121.982 181.076 120.06 179.83L118.972 181.508C121.102 182.889 123.329 183.782 125.587 184.26L126.001 182.304ZM115.227 175.482C113.936 173.94 112.708 172.112 111.572 169.966L109.805 170.901C111 173.159 112.303 175.105 113.694 176.766L115.227 175.482ZM108.901 163.817C108.203 161.854 107.566 159.71 106.998 157.374L105.055 157.846C105.637 160.243 106.294 162.453 107.017 164.487L108.901 163.817ZM105.673 150.769C105.33 148.657 105.035 146.42 104.795 144.053L102.805 144.255C103.049 146.659 103.349 148.936 103.699 151.09L105.673 150.769ZM104.277 137.285C104.162 135.112 104.087 132.846 104.055 130.483L102.055 130.51C102.087 132.898 102.163 135.191 102.28 137.391L104.277 137.285ZM104.079 123.646C104.123 121.443 104.2 119.165 104.314 116.811L102.316 116.714C102.202 119.087 102.123 121.384 102.079 123.607L104.079 123.646ZM104.723 110.075C104.806 108.928 104.897 107.764 104.996 106.584L103.003 106.416C102.904 107.604 102.812 108.775 102.728 109.93L104.723 110.075ZM104.996 106.584C105.094 105.419 105.206 104.267 105.33 103.127L103.342 102.91C103.216 104.067 103.103 105.235 103.003 106.416L104.996 106.584ZM106.244 96.3349C106.615 94.0384 107.04 91.7953 107.517 89.6045L105.563 89.1787C105.078 91.4057 104.646 93.6847 104.27 96.0167L106.244 96.3349ZM109.167 82.9579C109.793 80.7211 110.475 78.5431 111.211 76.4226L109.322 75.7666C108.572 77.9262 107.877 80.1433 107.241 82.4192L109.167 82.9579ZM113.663 70.0299C114.562 67.8948 115.519 65.8231 116.528 63.8133L114.741 62.9156C113.711 64.9653 112.736 67.0774 111.82 69.2536L113.663 70.0299ZM119.807 57.807C120.982 55.8199 122.212 53.8995 123.492 52.0437L121.846 50.9082C120.539 52.8019 119.285 54.7615 118.085 56.7888L119.807 57.807ZM127.569 46.5529C129.004 44.7547 130.489 43.0243 132.017 41.3597L130.544 40.007C128.985 41.705 127.47 43.4704 126.006 45.3053L127.569 46.5529ZM136.811 36.4838C138.477 34.8998 140.185 33.3836 141.928 31.9329L140.649 30.3955C138.872 31.8738 137.132 33.4192 135.433 35.0343L136.811 36.4838ZM147.332 27.722C149.187 26.3679 151.075 25.0801 152.987 23.8561L151.909 22.1715C149.963 23.4169 148.042 24.7276 146.153 26.1064L147.332 27.722ZM158.863 20.3341C160.869 19.2092 162.895 18.1486 164.934 17.1498L164.054 15.3537C161.983 16.3683 159.924 17.4461 157.885 18.5897L158.863 20.3341ZM171.176 14.296C173.299 13.3925 175.428 12.5517 177.556 11.7706L176.867 9.8931C174.708 10.6854 172.547 11.5386 170.393 12.4558L171.176 14.296ZM184.047 9.56718C186.263 8.87449 188.469 8.2439 190.657 7.67199L190.151 5.73698C187.933 6.31667 185.697 6.95594 183.45 7.6583L184.047 9.56718ZM197.336 6.09129C199.62 5.60649 201.872 5.18438 204.084 4.8208L203.76 2.84728C201.518 3.21579 199.235 3.64358 196.921 4.1349L197.336 6.09129ZM210.886 3.86658C213.234 3.59397 215.518 3.38814 217.725 3.24334L217.594 1.24763C215.354 1.39463 213.036 1.60349 210.655 1.87992L210.886 3.86658ZM224.561 2.98065C225.732 2.96901 226.872 2.97578 227.978 2.99982L228.022 1.00029C226.894 0.975786 225.733 0.968908 224.541 0.980753L224.561 2.98065Z" fill="#67A8D2"/>
</svg>
