<svg width="30" height="30" viewBox="0 0 30 30" fill="none" xmlns="http://www.w3.org/2000/svg">
<circle cx="15" cy="15" r="15" fill="white" fill-opacity="0.2"/>
<g opacity="0.7">
<path d="M15 15.8039C16.3314 15.8039 17.4107 14.7245 17.4107 13.3931C17.4107 12.0617 16.3314 10.9824 15 10.9824C13.6686 10.9824 12.5893 12.0617 12.5893 13.3931C12.5893 14.7245 13.6686 15.8039 15 15.8039Z" stroke="white" stroke-linecap="round" stroke-linejoin="round"/>
<path d="M15 6.96436C13.295 6.96436 11.6599 7.64165 10.4543 8.84724C9.24872 10.0528 8.57143 11.688 8.57143 13.3929C8.57143 14.9133 8.89446 15.9081 9.77678 17.009L15 23.0358L20.2232 17.009C21.1055 15.9081 21.4286 14.9133 21.4286 13.3929C21.4286 11.688 20.7513 10.0528 19.5457 8.84724C18.3401 7.64165 16.705 6.96436 15 6.96436V6.96436Z" stroke="white" stroke-linecap="round" stroke-linejoin="round"/>
</g>
</svg>
