<svg width="30" height="30" viewBox="0 0 30 30" fill="none" xmlns="http://www.w3.org/2000/svg">
<circle opacity="0.2" cx="15" cy="15" r="15" fill="white"/>
<g opacity="0.7">
<path d="M23.1696 8.10303H7.90178C7.56434 8.10303 7.24072 8.23708 7.00211 8.47568C6.7635 8.71429 6.62946 9.03791 6.62946 9.37535V19.5539C6.62946 19.8914 6.7635 20.215 7.00211 20.4536C7.24072 20.6922 7.56434 20.8262 7.90178 20.8262H23.1696C23.5071 20.8262 23.8307 20.6922 24.0693 20.4536C24.3079 20.215 24.442 19.8914 24.442 19.5539V9.37535C24.442 9.03791 24.3079 8.71429 24.0693 8.47568C23.8307 8.23708 23.5071 8.10303 23.1696 8.10303ZM21.7701 9.37535L15.5357 13.6885L9.30133 9.37535H21.7701ZM7.90178 19.5539V9.95425L15.1731 14.9863C15.2796 15.0602 15.4061 15.0997 15.5357 15.0997C15.6653 15.0997 15.7918 15.0602 15.8983 14.9863L23.1696 9.95425V19.5539H7.90178Z" fill="white"/>
</g>
</svg>
