<svg width="30" height="30" viewBox="0 0 30 30" fill="none" xmlns="http://www.w3.org/2000/svg">
<circle opacity="0.2" cx="15" cy="15" r="15" fill="white"/>
<g opacity="0.7" clip-path="url(#clip0_75_142)">
<path d="M20.2125 24.3433C20.0323 24.3428 19.8528 24.323 19.6768 24.2843C16.3268 23.5914 13.2405 21.9665 10.7732 19.5968C8.35858 17.222 6.68389 14.1982 5.95179 10.8915C5.86547 10.4794 5.88665 10.052 6.01331 9.65041C6.13997 9.24885 6.36785 8.88664 6.675 8.59864L8.81786 6.53614C8.92731 6.43263 9.05736 6.35337 9.19951 6.30352C9.34167 6.25367 9.49274 6.23436 9.64286 6.24685C9.79852 6.26309 9.94873 6.31323 10.0829 6.39375C10.2171 6.47428 10.3321 6.58322 10.4196 6.71292L13.0982 10.6719C13.1987 10.8255 13.2472 11.0073 13.2365 11.1905C13.2259 11.3737 13.1568 11.5487 13.0393 11.6897L11.6946 13.2968C12.2302 14.4821 12.9886 15.5533 13.9286 16.4522C14.8625 17.3837 15.9663 18.1275 17.1804 18.6433L18.8464 17.3201C18.9864 17.2095 19.1566 17.1441 19.3346 17.1326C19.5126 17.1211 19.6899 17.1641 19.8429 17.2558L23.8875 19.8701C24.0263 19.9529 24.1446 20.0661 24.2334 20.2012C24.3222 20.3363 24.3793 20.4897 24.4005 20.65C24.4216 20.8102 24.4062 20.9732 24.3554 21.1267C24.3046 21.2801 24.2197 21.4201 24.1071 21.5361L22.0179 23.604C21.7805 23.8402 21.4988 24.027 21.189 24.1539C20.8792 24.2808 20.5473 24.3452 20.2125 24.3433ZM9.55715 7.30757L7.41429 9.37007C7.2415 9.53107 7.11359 9.73429 7.04314 9.95972C6.97269 10.1851 6.96213 10.425 7.0125 10.6558C7.69325 13.7587 9.25807 16.5981 11.5179 18.8308C13.8398 21.0602 16.7441 22.5885 19.8964 23.2397C20.135 23.2896 20.3823 23.2795 20.616 23.2103C20.8498 23.1411 21.0627 23.015 21.2357 22.8433L23.325 20.7754L19.4196 18.2522L17.6304 19.6772C17.5619 19.7314 17.4811 19.7681 17.3952 19.7839C17.3093 19.7998 17.2209 19.7944 17.1375 19.7683C15.6518 19.2209 14.3054 18.352 13.1946 17.2236C12.0457 16.1507 11.1539 14.8322 10.5857 13.3665C10.5617 13.2778 10.5609 13.1843 10.5834 13.0952C10.6059 13.0061 10.651 12.9242 10.7143 12.8576L12.1607 11.1272L9.55715 7.30757Z" fill="white"/>
</g>
<defs>
<clipPath id="clip0_75_142">
<rect width="19.2857" height="19.2857" fill="white" transform="translate(5.35714 5.35742)"/>
</clipPath>
</defs>
</svg>
