<svg width="673" height="444" viewBox="0 0 673 444" fill="none" xmlns="http://www.w3.org/2000/svg">
<path d="M96.4313 279.409C103.212 339.636 166.231 369.55 223.667 345.22C224.464 346.018 264.589 341.023 337.181 327.861C513.455 309.058 476.687 397.059 411.659 382.082C409.072 381.486 406.44 380.727 403.775 379.792C381.781 407.285 329.85 395.677 321.907 383.458C233.319 426.225 182.186 367.157 180.191 367.955C164.237 383.109 70.1068 388.296 50.5628 306.93C34.9277 241.836 84.7316 204.29 111.588 193.654C94.0382 157.757 115.975 116.675 144.294 102.316C172.613 87.9573 198.539 100.721 198.938 101.12C130.733 119.866 153.468 185.677 155.462 186.475C107.28 208.173 96.0325 257.471 96.4313 279.409Z" fill="#67A8D2"/>
<path d="M323.381 20.5505C399.323 25.0177 423.095 82.7722 425.488 111.091C441.708 104.443 479.972 97.2108 503.265 121.461C526.558 145.712 526.532 173.313 523.607 184.082C547.671 188.203 597.236 209.848 602.979 263.454C608.723 317.061 570.273 349.341 550.33 358.781C542.885 361.573 524.803 367.157 512.04 367.157C500.473 383.776 450.208 405.452 403.775 374.904C403.775 374.904 395.897 393.233 363.452 393.233C333.515 393.233 318.196 374.469 313.808 372.342C292.27 378.192 244.008 381.915 223.268 350.006C201.862 357.85 151.872 366.279 123.155 337.243C107.599 322.086 77.6851 283.397 98.8245 229.95C108.796 206.019 129.138 189.267 154.664 184.879C155.063 183.284 106.569 150.004 136.716 107.102C150.229 87.8723 194.949 91.547 209.308 107.102C214.493 78.2518 244.567 20.5505 323.381 20.5505Z" fill="#8CB1C9"/>
<path d="M224.863 176.503C228.586 159.884 243.769 126.168 274.72 124.253C305.672 122.339 323.78 145.26 328.965 156.959C337.474 149.647 360.076 136.698 382.412 143.398C404.748 150.099 417.245 168.26 420.702 176.503C428.014 170.255 447.904 160.868 468.963 173.313C490.023 185.757 497.947 200.036 499.277 205.62C494.756 197.643 480.451 180.652 459.391 176.503C438.331 172.355 422.962 179.295 417.91 183.284C413.389 173.844 398.844 154.487 376.828 152.572C354.811 150.658 335.745 161.347 328.965 166.931C323.647 156.295 306.31 134.703 279.507 133.427C252.703 132.151 231.91 161.613 224.863 176.503Z" fill="#67A8D2"/>
<g filter="url(#filter0_f_12_219)">
<ellipse cx="235.763" cy="430.501" rx="69.6489" ry="5.4986" fill="#67A8D2"/>
</g>
<g filter="url(#filter1_f_12_219)">
<ellipse cx="381.17" cy="429.279" rx="69.6489" ry="5.4986" fill="#67A8D2"/>
</g>
<g filter="url(#filter2_f_12_219)">
<ellipse cx="525.355" cy="429.279" rx="59.8736" ry="5.4986" fill="#67A8D2"/>
</g>
<g clip-path="url(#clip0_12_219)">
<path d="M207.736 206.281C208.257 206.281 208.723 206.605 208.898 207.091L210.149 210.558C210.598 210.67 210.982 210.781 211.308 210.898C211.664 211.026 212.123 211.219 212.69 211.483L215.603 209.941C215.841 209.815 216.113 209.77 216.379 209.812C216.644 209.854 216.889 209.981 217.077 210.173L219.639 212.822C219.979 213.175 220.075 213.69 219.883 214.14L218.517 217.342C218.744 217.758 218.925 218.115 219.063 218.412C219.212 218.736 219.396 219.183 219.616 219.759L222.8 221.123C223.278 221.327 223.574 221.805 223.542 222.317L223.308 225.994C223.292 226.232 223.206 226.461 223.062 226.652C222.917 226.842 222.719 226.986 222.493 227.066L219.478 228.137C219.391 228.554 219.3 228.91 219.205 229.211C219.05 229.676 218.874 230.134 218.677 230.582L220.192 233.931C220.299 234.166 220.327 234.43 220.274 234.683C220.22 234.935 220.087 235.164 219.894 235.336L217.013 237.909C216.823 238.077 216.587 238.184 216.335 238.215C216.083 238.245 215.827 238.198 215.603 238.079L212.633 236.506C212.169 236.751 211.689 236.969 211.198 237.156L209.901 237.641L208.75 240.83C208.664 241.064 208.51 241.266 208.308 241.411C208.106 241.555 207.864 241.635 207.616 241.64L204.249 241.716C203.994 241.723 203.743 241.65 203.531 241.509C203.319 241.367 203.155 241.163 203.064 240.924L201.707 237.333C201.244 237.175 200.785 237.003 200.332 236.819C199.961 236.659 199.596 236.485 199.237 236.3L195.871 237.739C195.649 237.833 195.404 237.861 195.167 237.82C194.929 237.778 194.709 237.668 194.533 237.503L192.042 235.166C191.856 234.993 191.73 234.766 191.681 234.517C191.631 234.268 191.662 234.01 191.767 233.779L193.215 230.625C193.022 230.251 192.844 229.871 192.68 229.484C192.488 229.01 192.311 228.531 192.148 228.047L188.977 227.081C188.719 227.004 188.494 226.843 188.337 226.624C188.18 226.405 188.1 226.141 188.108 225.871L188.232 222.468C188.241 222.246 188.311 222.03 188.433 221.845C188.556 221.659 188.726 221.511 188.927 221.415L192.254 219.817C192.409 219.252 192.543 218.813 192.662 218.492C192.829 218.064 193.015 217.643 193.218 217.23L191.776 214.183C191.667 213.952 191.633 213.691 191.681 213.44C191.729 213.188 191.855 212.958 192.042 212.783L194.529 210.434C194.704 210.269 194.922 210.159 195.158 210.115C195.393 210.072 195.637 210.098 195.858 210.189L199.221 211.578C199.593 211.33 199.93 211.13 200.234 210.969C200.598 210.776 201.083 210.574 201.694 210.356L202.864 207.094C202.95 206.855 203.108 206.649 203.316 206.504C203.524 206.358 203.772 206.28 204.026 206.281H207.736ZM205.869 218.717C202.915 218.717 200.521 221.082 200.521 224.002C200.521 226.922 202.915 229.289 205.869 229.289C208.82 229.289 211.214 226.922 211.214 224.002C211.214 221.082 208.822 218.717 205.869 218.717Z" fill="#67A8D2"/>
</g>
<g clip-path="url(#clip1_12_219)">
<path d="M188.186 175.733C188.706 175.733 189.172 176.057 189.348 176.543L190.599 180.01C191.047 180.122 191.431 180.233 191.757 180.35C192.114 180.478 192.572 180.671 193.139 180.935L196.052 179.394C196.29 179.268 196.562 179.222 196.828 179.264C197.094 179.306 197.339 179.433 197.526 179.626L200.088 182.275C200.428 182.627 200.524 183.143 200.333 183.593L198.967 186.794C199.194 187.211 199.374 187.567 199.512 187.864C199.661 188.189 199.846 188.635 200.065 189.211L203.249 190.575C203.728 190.779 204.023 191.257 203.992 191.769L203.758 195.446C203.742 195.685 203.656 195.914 203.511 196.104C203.366 196.295 203.168 196.439 202.943 196.518L199.927 197.59C199.84 198.006 199.75 198.362 199.654 198.663C199.5 199.129 199.324 199.586 199.126 200.035L200.641 203.383C200.748 203.619 200.777 203.882 200.723 204.135C200.67 204.388 200.537 204.617 200.343 204.788L197.463 207.361C197.273 207.53 197.036 207.636 196.784 207.667C196.532 207.697 196.277 207.65 196.052 207.531L193.083 205.958C192.618 206.204 192.139 206.421 191.648 206.608L190.351 207.093L189.199 210.283C189.114 210.516 188.96 210.719 188.757 210.863C188.555 211.008 188.314 211.087 188.065 211.092L184.699 211.169C184.444 211.175 184.193 211.103 183.98 210.961C183.768 210.819 183.605 210.615 183.513 210.377L182.156 206.785C181.693 206.627 181.235 206.456 180.781 206.271C180.411 206.111 180.045 205.938 179.686 205.752L176.32 207.191C176.098 207.286 175.854 207.314 175.616 207.272C175.379 207.23 175.158 207.12 174.982 206.955L172.491 204.618C172.306 204.445 172.179 204.218 172.13 203.969C172.081 203.72 172.111 203.462 172.217 203.231L173.664 200.077C173.472 199.704 173.293 199.323 173.129 198.936C172.938 198.463 172.76 197.984 172.598 197.499L169.426 196.534C169.168 196.456 168.943 196.295 168.786 196.076C168.629 195.857 168.549 195.593 168.558 195.324L168.682 191.92C168.691 191.698 168.76 191.483 168.883 191.297C169.005 191.112 169.176 190.963 169.376 190.868L172.704 189.269C172.858 188.704 172.993 188.265 173.111 187.944C173.278 187.516 173.464 187.095 173.668 186.683L172.225 183.635C172.116 183.404 172.083 183.144 172.131 182.892C172.178 182.641 172.305 182.411 172.491 182.236L174.979 179.886C175.153 179.722 175.371 179.611 175.607 179.568C175.843 179.524 176.086 179.55 176.308 179.642L179.67 181.031C180.042 180.783 180.379 180.582 180.684 180.421C181.047 180.228 181.533 180.026 182.144 179.808L183.313 176.546C183.4 176.308 183.558 176.101 183.766 175.956C183.974 175.81 184.222 175.733 184.475 175.733H188.186ZM187.317 178.173H185.345L184.273 181.174C184.21 181.349 184.108 181.508 183.975 181.638C183.842 181.767 183.681 181.865 183.505 181.924C182.732 182.181 182.174 182.402 181.848 182.574C181.502 182.756 181.061 183.035 180.537 183.407C180.365 183.527 180.166 183.602 179.957 183.625C179.749 183.648 179.538 183.618 179.344 183.538L176.102 182.2L174.839 183.394L176.155 186.176C176.315 186.513 176.311 186.902 176.145 187.234C175.79 187.944 175.551 188.469 175.431 188.791C175.31 189.112 175.149 189.663 174.952 190.425C174.908 190.597 174.826 190.758 174.713 190.896C174.599 191.034 174.457 191.145 174.297 191.222L171.125 192.744L171.061 194.48L173.932 195.352C174.313 195.467 174.614 195.759 174.74 196.135C175.023 196.986 175.25 197.613 175.413 198.006C175.629 198.505 175.868 198.994 176.129 199.471C176.308 199.804 176.32 200.201 176.162 200.545L174.832 203.447L176.091 204.631L179.249 203.281C179.419 203.208 179.603 203.174 179.788 203.181C179.973 203.189 180.153 203.237 180.317 203.323C180.964 203.663 181.446 203.899 181.75 204.028C182.061 204.158 182.654 204.374 183.515 204.668C183.686 204.726 183.842 204.822 183.972 204.947C184.102 205.073 184.202 205.225 184.266 205.394L185.521 208.709L187.161 208.674L188.219 205.743C188.28 205.576 188.376 205.424 188.501 205.298C188.626 205.171 188.777 205.074 188.944 205.012L190.781 204.324C191.245 204.152 191.809 203.881 192.466 203.509C192.648 203.407 192.853 203.352 193.061 203.35C193.27 203.347 193.476 203.397 193.66 203.495L196.454 204.974L198.026 203.573L196.651 200.538C196.58 200.382 196.544 200.213 196.543 200.042C196.543 199.871 196.579 199.702 196.649 199.546C196.972 198.825 197.19 198.281 197.3 197.933C197.408 197.593 197.519 197.102 197.627 196.472C197.664 196.257 197.758 196.057 197.899 195.891C198.039 195.725 198.221 195.599 198.426 195.527L201.346 194.491L201.474 192.471L198.604 191.241C198.451 191.176 198.313 191.081 198.198 190.961C198.083 190.841 197.994 190.699 197.936 190.543C197.731 189.979 197.508 189.421 197.266 188.871C197.037 188.392 196.789 187.923 196.522 187.464C196.429 187.302 196.375 187.121 196.365 186.934C196.354 186.748 196.386 186.562 196.46 186.39L197.744 183.378L196.391 181.979L193.754 183.375C193.582 183.466 193.391 183.516 193.196 183.52C193.001 183.524 192.808 183.482 192.633 183.398C192.073 183.12 191.501 182.868 190.918 182.643C190.42 182.476 189.913 182.34 189.399 182.236C189.195 182.192 189.006 182.098 188.848 181.961C188.691 181.825 188.571 181.65 188.499 181.454L187.316 178.171L187.317 178.173ZM186.318 185.728C190.632 185.728 194.132 189.188 194.132 193.454C194.132 197.721 190.632 201.179 186.318 201.179C182.002 201.179 178.505 197.721 178.505 193.454C178.505 189.188 182.002 185.729 186.318 185.729V185.728ZM186.318 188.169C183.365 188.169 180.971 190.535 180.971 193.454C180.971 196.374 183.365 198.741 186.318 198.741C189.27 198.741 191.664 196.374 191.664 193.454C191.664 190.535 189.272 188.169 186.318 188.169Z" fill="#67A8D2"/>
</g>
<rect x="197.883" y="398.121" width="18.3287" height="12.2191" rx="2" fill="#5A8EAF"/>
<rect x="250.426" y="398.121" width="18.3287" height="12.2191" rx="2" fill="#5A8EAF"/>
<rect x="162.635" y="368.184" width="142.353" height="32.3806" rx="5" fill="#5A8EAF"/>
<rect x="168.744" y="380.403" width="64.7612" height="7.33146" rx="3.66573" fill="#8CB1C9"/>
<circle cx="264.664" cy="384.069" r="3.66573" fill="#8CB1C9"/>
<circle cx="277.494" cy="384.069" r="3.66573" fill="#8CB1C9"/>
<circle cx="290.324" cy="384.069" r="3.66573" fill="#8CB1C9"/>
<rect x="162.635" y="332.138" width="142.353" height="32.3806" rx="5" fill="#5A8EAF"/>
<rect x="168.744" y="344.357" width="64.7612" height="7.33146" rx="3.66573" fill="#8CB1C9"/>
<circle cx="264.664" cy="348.023" r="3.66573" fill="#8CB1C9"/>
<circle cx="277.494" cy="348.023" r="3.66573" fill="#8CB1C9"/>
<circle cx="290.324" cy="348.023" r="3.66573" fill="#8CB1C9"/>
<rect x="162.635" y="295.48" width="142.353" height="32.3806" rx="5" fill="#5A8EAF"/>
<rect x="168.744" y="307.7" width="64.7612" height="7.33146" rx="3.66573" fill="#8CB1C9"/>
<circle cx="264.664" cy="311.365" r="3.66573" fill="#8CB1C9"/>
<circle cx="277.494" cy="311.365" r="3.66573" fill="#8CB1C9"/>
<circle cx="290.324" cy="311.365" r="3.66573" fill="#8CB1C9"/>
<rect x="162.635" y="260.045" width="142.353" height="32.3806" rx="5" fill="#5A8EAF"/>
<rect x="168.744" y="272.264" width="64.7612" height="7.33146" rx="3.66573" fill="#8CB1C9"/>
<circle cx="264.664" cy="275.93" r="3.66573" fill="#8CB1C9"/>
<circle cx="277.494" cy="275.93" r="3.66573" fill="#8CB1C9"/>
<circle cx="290.324" cy="275.93" r="3.66573" fill="#8CB1C9"/>
<rect x="345.735" y="398.121" width="18.3287" height="12.2191" rx="2" fill="#5A8EAF"/>
<rect x="398.277" y="398.121" width="18.3287" height="12.2191" rx="2" fill="#5A8EAF"/>
<rect x="310.299" y="368.184" width="142.353" height="32.3806" rx="5" fill="#5A8EAF"/>
<rect x="316.409" y="380.403" width="64.7612" height="7.33146" rx="3.66573" fill="#8CB1C9"/>
<circle cx="412.329" cy="384.069" r="3.66573" fill="#8CB1C9"/>
<circle cx="425.159" cy="384.069" r="3.66573" fill="#8CB1C9"/>
<circle cx="437.989" cy="384.069" r="3.66573" fill="#8CB1C9"/>
<rect x="310.299" y="332.138" width="142.353" height="32.3806" rx="5" fill="#5A8EAF"/>
<rect x="316.409" y="344.357" width="64.7612" height="7.33146" rx="3.66573" fill="#8CB1C9"/>
<circle cx="412.329" cy="348.023" r="3.66573" fill="#8CB1C9"/>
<circle cx="425.159" cy="348.023" r="3.66573" fill="#8CB1C9"/>
<circle cx="437.989" cy="348.023" r="3.66573" fill="#8CB1C9"/>
<rect x="310.299" y="295.48" width="142.353" height="32.3806" rx="5" fill="#5A8EAF"/>
<rect x="316.409" y="307.7" width="64.7612" height="7.33146" rx="3.66573" fill="#8CB1C9"/>
<circle cx="412.329" cy="311.365" r="3.66573" fill="#8CB1C9"/>
<circle cx="425.159" cy="311.365" r="3.66573" fill="#8CB1C9"/>
<circle cx="437.989" cy="311.365" r="3.66573" fill="#8CB1C9"/>
<rect x="310.299" y="260.045" width="142.353" height="32.3806" rx="5" fill="#5A8EAF"/>
<rect x="316.409" y="272.264" width="64.7612" height="7.33146" rx="3.66573" fill="#8CB1C9"/>
<circle cx="412.329" cy="275.93" r="3.66573" fill="#8CB1C9"/>
<circle cx="425.159" cy="275.93" r="3.66573" fill="#8CB1C9"/>
<circle cx="437.989" cy="275.93" r="3.66573" fill="#8CB1C9"/>
<rect x="485.032" y="398.121" width="18.3287" height="12.2191" rx="2" fill="#337CAB"/>
<rect x="537.574" y="398.121" width="18.3287" height="12.2191" rx="2" fill="#245F85"/>
<rect x="460.594" y="170.846" width="129.522" height="229.719" rx="5" fill="#337CAB"/>
<rect x="460.594" y="170.846" width="129.522" height="202.837" rx="5" fill="#216B9A"/>
<rect x="466.847" y="196.224" width="123.27" height="3.62557" fill="#5A94BA"/>
<rect x="466.847" y="218.884" width="123.27" height="3.62557" fill="#5A94BA"/>
<rect x="466.847" y="241.544" width="123.27" height="3.62557" fill="#5A94BA"/>
<rect x="466.847" y="264.204" width="123.27" height="3.62557" fill="#5A94BA"/>
<rect x="463.222" y="192.599" width="57.1028" height="10.8767" rx="5.43836" fill="#FE8572"/>
<rect x="463.222" y="215.259" width="57.1028" height="10.8767" rx="5.43836" fill="#FE8572"/>
<rect x="463.222" y="236.106" width="57.1028" height="10.8767" rx="5.43836" fill="#FE8572"/>
<rect x="463.222" y="260.578" width="57.1028" height="10.8767" rx="5.43836" fill="#FE8572"/>
<path opacity="0.5" d="M537.574 170.846H585.117C587.878 170.846 590.117 173.084 590.117 175.846V395.565C590.117 398.326 587.878 400.565 585.117 400.565H537.574V170.846Z" fill="#15425F"/>
<circle cx="485.643" cy="288.76" r="4.27669" fill="white"/>
<path d="M488.698 289.982C500.51 293.647 532.32 299.635 565.067 294.258C606.001 287.538 618.221 250.881 617.61 234.996C616.999 219.111 609.056 196.506 595.615 192.229C592.683 191.251 590.728 191.007 590.117 191.007" stroke="white" stroke-width="2" stroke-dasharray="7 7"/>
<circle cx="229.042" cy="347.411" r="4.27669" fill="white"/>
<path d="M228.431 346.801C240.243 341.302 267.044 333.604 279.751 346.801C295.636 363.296 292.581 382.236 279.751 392.622C266.921 403.008 255.313 384.68 264.478 378.57C273.642 372.461 296.858 388.956 288.305 403.008C279.751 417.06 265.089 427.447 247.982 424.392C234.296 421.948 231.282 409.118 231.486 403.008" stroke="white" stroke-width="2" stroke-dasharray="7 7"/>
<circle cx="315.798" cy="319.308" r="4.27669" fill="white"/>
<path d="M315.798 318.697C333.108 310.754 365.285 287.294 355.51 256.99C343.291 219.111 292.582 231.33 300.524 151.295C308.466 71.2599 381.781 113.416 363.452 128.079C345.124 142.742 315.187 95.698 335.348 62.0955C355.51 28.493 382.392 16.2739 398.277 26.6601C410.985 34.9691 412.532 57.4115 411.718 67.5941" stroke="white" stroke-width="2" stroke-dasharray="7 7"/>
<path d="M497.336 90.3352C498.046 90.1829 498.698 89.8352 499.22 89.3313C499.742 88.8274 500.112 88.1876 500.289 87.4841C501.206 87.2465 502.088 86.941 502.988 86.6186V84.5821C502.995 84.291 503.029 84.0013 503.089 83.7165C502.08 84.1238 501.049 84.4751 500.001 84.7687C499.635 84.0438 499.049 83.4525 498.328 83.0786C497.607 82.7047 496.787 82.5672 495.984 82.6854C495.18 82.8037 494.434 83.1718 493.852 83.7376C493.269 84.3034 492.879 85.0382 492.737 85.8379H491.973C489.004 82.3912 487.283 78.045 487.086 73.5C489.367 70.3035 492.249 67.5826 495.571 65.4897C496.066 65.9954 496.692 66.3525 497.379 66.5204C498.066 66.6884 498.786 66.6606 499.458 66.4401C501.449 69.7067 504.02 72.5823 507.044 74.9256C507.154 74.783 507.273 74.647 507.4 74.5183L509.012 72.9739C506.051 70.765 503.544 68.0047 501.63 64.8448C502.015 64.2349 502.22 63.5293 502.224 62.8083V62.4349C508.429 60.3498 515.145 60.3498 521.35 62.4349C520.893 64.3854 520.239 66.2845 519.399 68.1032H522.368C522.999 66.6056 523.515 65.0625 523.913 63.4871C524.643 63.8096 525.338 64.1829 526.051 64.5733C527.024 66.7682 527.598 69.1184 527.748 71.5144C528.388 71.1563 529.103 70.9529 529.836 70.9204C530.226 70.9281 530.614 70.9852 530.99 71.0901C530.69 66.5124 529.072 62.1192 526.33 58.4412C523.588 54.7631 519.84 51.9576 515.538 50.3632C511.237 48.7689 506.566 48.4539 502.089 49.4565C497.612 50.459 493.521 52.7362 490.311 56.0129C487.1 59.2896 484.907 63.4258 483.995 67.9219C483.084 72.4181 483.494 77.0819 485.175 81.3502C486.857 85.6185 489.738 89.3087 493.471 91.9752C497.204 94.6417 501.629 96.1705 506.212 96.3769C505.781 95.2865 505.781 94.073 506.212 92.9827C503.089 92.7979 500.051 91.8917 497.336 90.3352ZM507.366 52.2523C510.094 52.2565 512.792 52.8084 515.302 53.8754C517.812 54.9424 520.083 56.5027 521.978 58.4637C521.978 58.888 521.978 59.3292 521.842 59.7535C515.026 57.507 507.659 57.5726 500.883 59.9402C500.307 59.4473 499.599 59.1346 498.847 59.0407C498.392 57.6381 498.046 56.2026 497.812 54.7471C500.741 53.139 504.024 52.2819 507.366 52.2523ZM495.317 56.2575C495.536 57.3576 495.814 58.4452 496.148 59.5159C495.593 59.8635 495.135 60.3464 494.818 60.9193C494.5 61.4922 494.333 62.1363 494.332 62.7913V63.0459C491.768 64.6593 489.438 66.618 487.408 68.8669C488.359 63.8165 491.184 59.3122 495.317 56.2575Z" fill="#79A9C9"/>
<path d="M521.35 79.7284C520.062 79.7418 518.807 80.1367 517.743 80.8632C516.679 81.5896 515.855 82.6151 515.373 83.8099C514.892 85.0048 514.776 86.3155 515.039 87.5765C515.302 88.8375 515.933 89.9922 516.852 90.8947C517.771 91.7973 518.937 92.4072 520.203 92.6474C521.469 92.8876 522.777 92.7474 523.963 92.2444C525.149 91.7414 526.159 90.8983 526.866 89.8214C527.573 88.7446 527.945 87.4824 527.935 86.1943C527.908 84.4672 527.202 82.8201 525.97 81.6099C524.737 80.3997 523.078 79.7237 521.35 79.7284ZM521.35 90.0467C520.604 90.0333 519.877 89.8003 519.262 89.3767C518.647 88.9532 518.171 88.3579 517.892 87.6651C517.613 86.9724 517.544 86.2128 517.695 85.4813C517.845 84.7498 518.207 84.0787 518.736 83.5519C519.266 83.025 519.938 82.6656 520.67 82.5187C521.403 82.3717 522.162 82.4436 522.853 82.7255C523.545 83.0073 524.138 83.4866 524.559 84.1035C524.98 84.7204 525.209 85.4476 525.22 86.1943C525.222 86.7023 525.123 87.2056 524.929 87.6752C524.735 88.1447 524.45 88.571 524.09 88.9294C523.73 89.2878 523.303 89.5712 522.832 89.763C522.362 89.9548 521.858 90.0512 521.35 90.0467Z" fill="#79A9C9"/>
<path d="M536.913 84.7348C536.929 84.3394 536.824 83.9486 536.612 83.6148C536.399 83.281 536.09 83.0203 535.725 82.868L533.077 82.0873C532.953 81.7252 532.806 81.3688 532.636 81.0181L533.858 78.761C534.05 78.3937 534.119 77.9745 534.055 77.5652C533.991 77.1558 533.797 76.7778 533.501 76.4869L531.227 74.2467C530.934 73.9543 530.556 73.7636 530.146 73.7025C529.737 73.6414 529.319 73.7132 528.953 73.9073L526.679 75.1122C526.308 74.935 525.929 74.7764 525.542 74.637L524.744 72.1253C524.611 71.7467 524.362 71.4191 524.034 71.188C523.705 70.9569 523.313 70.8337 522.912 70.8355H519.653C519.243 70.8385 518.845 70.9715 518.515 71.2155C518.186 71.4596 517.943 71.8019 517.82 72.1932L517.074 74.6201C516.681 74.759 516.296 74.9176 515.92 75.0952L513.679 73.9073C513.318 73.7151 512.904 73.6427 512.498 73.7007C512.093 73.7586 511.716 73.9439 511.422 74.2297L509.097 76.4529C508.798 76.7451 508.602 77.1262 508.538 77.5392C508.474 77.9522 508.545 78.3749 508.741 78.744L509.929 80.9163C509.748 81.2783 509.589 81.646 509.454 82.0194L507.061 82.8001C506.662 82.9178 506.312 83.1618 506.065 83.4955C505.817 83.8291 505.684 84.2342 505.686 84.6499V87.8235C505.705 88.2259 505.85 88.6124 506.099 88.9288C506.349 89.2452 506.691 89.4758 507.078 89.5885L509.572 90.3352C509.708 90.6972 509.867 91.0593 510.048 91.4213L508.826 93.7124C508.628 94.0798 508.554 94.5014 508.615 94.9143C508.676 95.3273 508.869 95.7093 509.165 96.0035L511.439 98.2436C511.732 98.536 512.111 98.7267 512.52 98.7878C512.93 98.8489 513.348 98.7772 513.713 98.5831L516.038 97.3612C516.389 97.5196 516.745 97.6666 517.108 97.8024L517.854 100.297C517.977 100.691 518.223 101.036 518.556 101.28C518.889 101.524 519.291 101.655 519.704 101.655H522.929C523.336 101.648 523.73 101.514 524.056 101.27C524.382 101.026 524.623 100.686 524.744 100.297L525.491 97.8024C525.848 97.6836 526.204 97.5309 526.543 97.3781L528.885 98.617C529.249 98.8071 529.664 98.8766 530.069 98.8156C530.475 98.7546 530.851 98.5662 531.143 98.2776L533.417 96.0374C533.716 95.7453 533.912 95.3642 533.976 94.9512C534.04 94.5382 533.969 94.1155 533.773 93.7463L532.534 91.4722C532.693 91.1328 532.834 90.7934 532.958 90.454L535.504 89.7073C535.903 89.5973 536.257 89.361 536.511 89.0337C536.764 88.7063 536.906 88.3056 536.913 87.8914V84.7348ZM534.197 87.2804L530.803 88.2647L530.599 88.9775C530.411 89.6195 530.155 90.2396 529.836 90.8273L529.479 91.4722L531.176 94.51L529.717 95.9356L526.628 94.2385L526 94.5779C525.396 94.904 524.759 95.1656 524.1 95.3586L523.387 95.5622L522.386 98.9564H520.298L519.297 95.6471L518.584 95.4434C517.92 95.2561 517.277 95.0001 516.666 94.6797L516.038 94.3403L512.967 96.0374L511.507 94.5949L513.204 91.5062L512.831 90.8613C512.484 90.2546 512.205 89.6114 511.999 88.9436L511.779 88.2477L508.469 87.2634V85.2099L511.762 84.2256L511.965 83.5298C512.169 82.8558 512.448 82.2068 512.797 81.5951L513.17 80.9333L511.473 77.9973L512.95 76.5717L515.954 78.167L516.598 77.8106C517.228 77.4616 517.894 77.1828 518.584 76.979L519.28 76.7754L520.281 73.5339H522.369L523.353 76.7584L524.049 76.9621C524.732 77.1614 525.393 77.4346 526.017 77.7767L526.662 78.133L529.717 76.5208L531.176 77.9633L529.479 80.9672L529.836 81.6121C530.172 82.2199 530.439 82.863 530.633 83.5298L530.837 84.2426L534.112 85.2099L534.197 87.2804Z" fill="#79A9C9"/>
<g clip-path="url(#clip2_12_219)">
<path d="M118.154 295.786C119.925 295.786 121.437 296.412 122.689 297.665C123.942 298.918 124.569 300.43 124.569 302.201V308.616C124.569 310.387 123.942 311.899 122.689 313.152C121.437 314.404 119.925 315.031 118.154 315.031H79.6636C77.8928 315.031 76.381 314.404 75.128 313.152C73.8751 311.899 73.2486 310.387 73.2486 308.616V302.201C73.2486 300.43 73.8751 298.918 75.128 297.665C76.381 296.412 77.8928 295.786 79.6636 295.786H95.7012V289.371H79.6636C77.8928 289.371 76.381 288.744 75.128 287.491C73.8751 286.238 73.2486 284.727 73.2486 282.956V276.541C73.2486 274.77 73.8751 273.258 75.128 272.005C76.381 270.752 77.8928 270.126 79.6636 270.126H95.7012V266.918C95.7012 266.016 96.0103 265.256 96.6284 264.638C97.2465 264.02 97.9983 263.711 98.8837 263.711C99.7691 263.711 100.529 264.02 101.164 264.638C101.799 265.256 102.116 266.016 102.116 266.918V270.126H118.154C119.925 270.126 121.437 270.752 122.689 272.005C123.942 273.258 124.569 274.77 124.569 276.541V282.956C124.569 284.727 123.942 286.238 122.689 287.491C121.437 288.744 119.925 289.371 118.154 289.371H102.116V295.786H118.154ZM82.8461 302.201C81.9607 302.201 81.2089 302.518 80.5908 303.153C79.9727 303.788 79.6636 304.548 79.6636 305.433C79.6636 306.319 79.9727 307.071 80.5908 307.689C81.2089 308.307 81.9607 308.616 82.8461 308.616C83.7315 308.616 84.4916 308.307 85.1264 307.689C85.7613 307.071 86.0787 306.319 86.0787 305.433C86.0787 304.548 85.7613 303.788 85.1264 303.153C84.4916 302.518 83.7315 302.201 82.8461 302.201ZM82.8461 276.541C81.9607 276.541 81.2089 276.858 80.5908 277.493C79.9727 278.128 79.6636 278.888 79.6636 279.773C79.6636 280.659 79.9727 281.41 80.5908 282.029C81.2089 282.647 81.9607 282.956 82.8461 282.956C83.7315 282.956 84.4916 282.647 85.1264 282.029C85.7613 281.41 86.0787 280.659 86.0787 279.773C86.0787 278.888 85.7613 278.128 85.1264 277.493C84.4916 276.858 83.7315 276.541 82.8461 276.541ZM114.946 282.956C115.815 282.956 116.567 282.647 117.202 282.029C117.836 281.41 118.154 280.659 118.154 279.773C118.154 278.888 117.836 278.128 117.202 277.493C116.567 276.858 115.815 276.541 114.946 276.541H95.7012C94.7991 276.541 94.039 276.858 93.4209 277.493C92.8028 278.128 92.4937 278.888 92.4937 279.773C92.4937 280.659 92.8028 281.41 93.4209 282.029C94.039 282.647 94.7991 282.956 95.7012 282.956H114.946ZM95.7012 302.201C94.7991 302.201 94.039 302.518 93.4209 303.153C92.8028 303.788 92.4937 304.548 92.4937 305.433C92.4937 306.319 92.8028 307.071 93.4209 307.689C94.039 308.307 94.7991 308.616 95.7012 308.616H114.946C115.815 308.616 116.567 308.307 117.202 307.689C117.836 307.071 118.154 306.319 118.154 305.433C118.154 304.548 117.836 303.788 117.202 303.153C116.567 302.518 115.815 302.201 114.946 302.201H95.7012Z" fill="white"/>
</g>
<g clip-path="url(#clip3_12_219)">
<path d="M4.67272 150.181L28.4863 164.844L50.0805 147.073M6.89211 182.615L52.2998 179.508L50.0805 147.073L4.67272 150.181L6.89211 182.615Z" stroke="#5E97BC" stroke-width="2" stroke-linecap="round" stroke-linejoin="round"/>
</g>
<g clip-path="url(#clip4_12_219)">
<path d="M251.13 102.051L244.985 104.835L242.057 98.3713C241.601 97.3643 240.419 96.9192 239.412 97.3755L221.49 105.495L211.924 102.134C211.803 102.093 211.671 102.099 211.554 102.151L197.091 108.703C196.084 109.159 195.639 110.342 196.095 111.349L211.354 145.031C211.81 146.038 212.993 146.483 214 146.027L253.713 128.036C254.453 127.701 254.921 126.947 254.888 126.132L253.954 103.789C253.942 103.534 253.881 103.28 253.776 103.047C253.32 102.04 252.137 101.595 251.13 102.051ZM240.889 106.691L211.872 119.836C211.132 120.171 210.664 120.925 210.698 121.74L211.203 133.799L201.223 111.769L211.948 106.91L221.701 110.336L238.992 102.503L240.889 106.691Z" fill="white"/>
</g>
<path d="M197.039 31.1091C192.388 23.339 198.977 19.6698 202.853 18.8065C202.207 17.0798 201.561 12.9141 204.144 10.0651C206.728 7.21605 210.604 8.2305 212.219 9.09385C212.219 6.3959 214.415 1 223.199 1C234.18 1 233.211 10.7126 233.857 10.0651C234.503 9.41759 237.733 8.44633 241.609 10.0651C244.709 11.3601 244.623 15.3531 244.192 17.1877C251.62 20.4252 252.266 21.7202 251.297 29.4903C250.522 35.7064 243.223 36.1813 239.671 35.6417C238.917 36.7209 236.57 38.8792 233.211 38.8792C229.853 38.8792 225.998 36.7209 224.491 35.6417C223.522 36.7209 220.616 38.8792 216.74 38.8792C212.865 38.8792 210.173 36.7209 209.312 35.6417C207.159 37.3684 201.69 38.8792 197.039 31.1091Z" stroke="#6BA0C2" stroke-width="2"/>
<g clip-path="url(#clip5_12_219)">
<path d="M637.795 139.088L634.277 140.139L635.504 149.892C635.555 150.303 635.704 150.696 635.938 151.037C636.172 151.378 636.485 151.659 636.849 151.855L637.009 151.941C637.31 152.103 637.575 152.323 637.791 152.588C638.006 152.852 638.168 153.157 638.265 153.484L641.078 162.895L631.825 165.732C630.965 164.879 629.918 164.238 628.767 163.86C627.616 163.482 626.392 163.378 625.194 163.555C623.995 163.732 622.855 164.187 621.862 164.881C620.87 165.576 620.053 166.493 619.477 167.559C618.948 168.542 618.636 169.627 618.564 170.741C618.491 171.855 618.658 172.972 619.055 174.015C619.451 175.059 620.067 176.005 620.861 176.79C621.655 177.574 622.609 178.179 623.657 178.563C624.705 178.947 625.824 179.102 626.937 179.016C628.05 178.93 629.131 178.605 630.108 178.065C631.085 177.524 631.934 176.78 632.598 175.883C633.262 174.985 633.726 173.956 633.957 172.864L643.249 170.157L644.267 173.563L642.443 175.275C642.092 175.605 641.839 176.027 641.714 176.493C641.589 176.958 641.596 177.449 641.734 177.911L645.263 189.719C645.461 190.378 645.912 190.932 646.518 191.26C647.124 191.587 647.835 191.66 648.494 191.462L654.074 189.795C654.734 189.597 655.288 189.146 655.615 188.54C655.942 187.934 656.015 187.223 655.818 186.564L652.289 174.756C652.151 174.294 651.887 173.88 651.527 173.559C651.167 173.239 650.725 173.025 650.25 172.942L647.785 172.511L646.776 169.134L656.159 166.4C657.029 167.219 658.075 167.828 659.217 168.18C660.359 168.531 661.566 168.615 662.746 168.426C663.926 168.237 665.046 167.779 666.021 167.089C666.996 166.398 667.799 165.493 668.369 164.442C668.701 163.828 668.943 163.188 669.094 162.541L661.564 164.794L657.996 161.794L659.331 157.33L666.864 155.079C665.869 154.138 664.644 153.476 663.311 153.159C661.979 152.843 660.587 152.883 659.275 153.276C657.963 153.669 656.778 154.401 655.84 155.398C654.901 156.395 654.241 157.622 653.928 158.955L644.593 161.818L641.784 152.432C641.586 151.773 641.659 151.062 641.986 150.456L642.074 150.293C642.27 149.93 642.377 149.524 642.385 149.111C642.393 148.697 642.302 148.288 642.12 147.917L637.795 139.088ZM646.705 175.31C646.869 175.261 647.041 175.244 647.211 175.262C647.38 175.279 647.545 175.33 647.696 175.411C647.846 175.492 647.979 175.602 648.086 175.734C648.194 175.867 648.275 176.019 648.323 176.183L651.478 186.738C651.527 186.902 651.543 187.073 651.526 187.243C651.508 187.413 651.458 187.577 651.377 187.728C651.295 187.878 651.186 188.011 651.053 188.118C650.921 188.226 650.768 188.307 650.605 188.356C650.441 188.405 650.27 188.421 650.1 188.403C649.93 188.386 649.765 188.335 649.615 188.254C649.465 188.173 649.332 188.063 649.224 187.931C649.117 187.798 649.036 187.646 648.987 187.483L645.832 176.928C645.783 176.764 645.767 176.592 645.784 176.423C645.801 176.253 645.852 176.088 645.933 175.938C646.014 175.787 646.124 175.655 646.257 175.547C646.389 175.439 646.542 175.359 646.705 175.31ZM628.798 166.689L629.576 167.823L630.753 168.534L630.86 169.905L631.522 171.11L630.929 172.351L630.901 173.725L629.768 174.503L629.056 175.68L627.685 175.787L626.48 176.45L625.239 175.857L623.865 175.829L623.087 174.695L621.91 173.983L621.803 172.612L621.141 171.407L621.734 170.167L621.762 168.792L622.895 168.014L623.607 166.838L624.978 166.731L626.183 166.068L627.423 166.661L628.798 166.689Z" fill="#80AECC"/>
</g>
<g clip-path="url(#clip6_12_219)">
<path d="M625.583 36.5857L626.463 40.7484C627.239 44.4169 618.769 49.3342 607.549 51.7074C596.329 54.0806 586.594 53.014 585.818 49.3456L584.937 45.1828C584.161 41.5144 592.631 36.597 603.851 34.2238C615.071 31.8506 624.807 32.9172 625.583 36.5857ZM627.564 45.9519L629.545 55.3181C630.321 58.9866 621.851 63.9039 610.631 66.2771C599.411 68.6503 589.675 67.5837 588.899 63.9153L586.918 54.5491C591.923 56.6435 600.212 56.3582 608.177 54.6735C616.142 52.9887 623.836 49.8934 627.564 45.9519ZM630.646 60.5216L632.627 69.8878C633.403 73.5562 624.933 78.4736 613.713 80.8468C602.493 83.22 592.757 82.1534 591.981 78.4849L590 69.1187C595.005 71.2132 603.293 70.9279 611.258 69.2431C619.223 67.5584 626.918 64.4631 630.646 60.5216Z" fill="#80AECC"/>
</g>
<defs>
<filter id="filter0_f_12_219" x="158.114" y="417.003" width="155.298" height="26.9972" filterUnits="userSpaceOnUse" color-interpolation-filters="sRGB">
<feFlood flood-opacity="0" result="BackgroundImageFix"/>
<feBlend mode="normal" in="SourceGraphic" in2="BackgroundImageFix" result="shape"/>
<feGaussianBlur stdDeviation="4" result="effect1_foregroundBlur_12_219"/>
</filter>
<filter id="filter1_f_12_219" x="303.521" y="415.781" width="155.298" height="26.9972" filterUnits="userSpaceOnUse" color-interpolation-filters="sRGB">
<feFlood flood-opacity="0" result="BackgroundImageFix"/>
<feBlend mode="normal" in="SourceGraphic" in2="BackgroundImageFix" result="shape"/>
<feGaussianBlur stdDeviation="4" result="effect1_foregroundBlur_12_219"/>
</filter>
<filter id="filter2_f_12_219" x="457.482" y="415.781" width="135.747" height="26.9972" filterUnits="userSpaceOnUse" color-interpolation-filters="sRGB">
<feFlood flood-opacity="0" result="BackgroundImageFix"/>
<feBlend mode="normal" in="SourceGraphic" in2="BackgroundImageFix" result="shape"/>
<feGaussianBlur stdDeviation="4" result="effect1_foregroundBlur_12_219"/>
</filter>
<clipPath id="clip0_12_219">
<rect width="35.4354" height="35.4354" fill="white" transform="translate(188.108 206.281)"/>
</clipPath>
<clipPath id="clip1_12_219">
<rect width="35.4354" height="35.4354" fill="white" transform="translate(168.558 175.733)"/>
</clipPath>
<clipPath id="clip2_12_219">
<rect width="51.3202" height="51.3202" fill="white" transform="translate(73.2486 263.711)"/>
</clipPath>
<clipPath id="clip3_12_219">
<rect width="52.0159" height="52.0159" fill="white" transform="translate(0.763489 140.672) rotate(-3.91451)"/>
</clipPath>
<clipPath id="clip4_12_219">
<rect width="63.9616" height="63.9616" fill="white" transform="translate(186.886 100.709) rotate(-24.3717)"/>
</clipPath>
<clipPath id="clip5_12_219">
<rect width="41.5449" height="41.5449" fill="white" transform="translate(635.51 137.854) rotate(28.3585)"/>
</clipPath>
<clipPath id="clip6_12_219">
<rect width="41.5449" height="47.6545" fill="white" transform="translate(583.528 38.5224) rotate(-11.9429)"/>
</clipPath>
</defs>
</svg>
