<svg width="143" height="89" viewBox="0 0 143 89" fill="none" xmlns="http://www.w3.org/2000/svg">
<path d="M0 55.5328L8.2397 82.8886C8.56929 84.0239 10.1074 86.2724 13.623 86.1845C17.3583 86.1845 18.2372 82.9985 19.3358 81.1308C20.2147 79.6367 25.4149 70.1812 27.9051 65.6402C31.201 71.2798 37.8367 82.625 38.0125 82.8886C38.2322 83.2182 39.4407 86.1845 43.2859 86.1845C47.0911 86.1845 48.099 82.9568 48.6519 81.1862L48.6692 81.1308C48.981 80.1331 51.3021 71.6658 53.396 63.9922C54.2534 60.8503 55.0727 57.8414 55.7004 55.5328H49.4382C48.4861 55.4962 46.4499 55.9283 45.9226 57.9498C45.3953 59.9713 42.9929 69.7783 41.8577 74.4292L33.1785 57.9498C32.5926 56.8878 30.7176 54.7858 27.9051 54.8736C25.0926 54.9615 23.3641 56.961 22.8514 57.9498L14.1723 74.4292L9.77778 57.9498C9.66792 57.1441 8.78902 55.5328 6.15231 55.5328H0Z" fill="#FA6232"/>
<path d="M82.397 55.5328H55.7004C55.0727 57.8414 54.2534 60.8503 53.396 63.9922C54.4529 63.1133 57.7164 63.1866 59.216 63.3331H72.839C75.3878 63.3331 77.6363 61.502 78.442 60.5865L82.397 55.5328Z" fill="#FA6232"/>
<path d="M53.613 67.1782C53.6862 67.3979 54.8874 67.8374 59.1061 67.8374H73.9376C76.7574 67.874 82.4629 69.0459 82.7266 73.4404C83.0562 78.9335 82.8365 84.8661 74.9264 85.1957C68.5983 85.4594 53.8327 85.5985 47.241 85.6352C47.9001 85.2689 49.4602 83.2401 50.427 78.0546H72.1798C72.8756 77.9081 74.2672 77.2856 74.2672 75.9672C74.2672 74.3193 72.7291 73.77 72.1798 73.77H56.799C55.4074 73.8432 52.4485 73.8798 51.7453 73.4404C51.8332 73.4404 53.0271 69.2656 53.613 67.1782Z" fill="white"/>
<path d="M95.8688 73.3015V84.5339H93.7014V79.7403H88.6073V84.5339H86.4241V73.3015H88.6073V77.8419H93.7014V73.3015H95.8688Z" fill="white"/>
<path d="M101.696 84.6921C100.789 84.6921 100.008 84.497 99.3544 84.1067C98.7111 83.7059 98.2154 83.1786 97.8673 82.5247C97.5193 81.8708 97.3453 81.1642 97.3453 80.4048C97.3453 79.6349 97.5193 78.923 97.8673 78.2691C98.2259 77.6152 98.7269 77.0931 99.3703 76.7029C100.024 76.3021 100.799 76.1017 101.696 76.1017C102.592 76.1017 103.362 76.3021 104.006 76.7029C104.659 77.0931 105.16 77.6152 105.509 78.2691C105.857 78.923 106.031 79.6349 106.031 80.4048C106.031 81.1642 105.857 81.8708 105.509 82.5247C105.16 83.1786 104.659 83.7059 104.006 84.1067C103.362 84.497 102.592 84.6921 101.696 84.6921ZM99.5285 80.4048C99.5285 80.8899 99.6234 81.3224 99.8132 81.7021C100.003 82.0712 100.261 82.3612 100.588 82.5722C100.915 82.7831 101.285 82.8886 101.696 82.8886C102.097 82.8886 102.46 82.7831 102.787 82.5722C103.114 82.3507 103.373 82.0554 103.563 81.6862C103.763 81.3065 103.863 80.8741 103.863 80.389C103.863 79.9144 103.763 79.4925 103.563 79.1234C103.373 78.7437 103.114 78.4484 102.787 78.2374C102.46 78.0159 102.097 77.9052 101.696 77.9052C101.285 77.9052 100.915 78.0159 100.588 78.2374C100.261 78.4484 100.003 78.7437 99.8132 79.1234C99.6234 79.4925 99.5285 79.9196 99.5285 80.4048Z" fill="white"/>
<path d="M110.515 84.6921C109.808 84.6921 109.133 84.5761 108.49 84.344C107.846 84.112 107.293 83.7692 106.829 83.3157L107.588 81.9394C108.084 82.3401 108.569 82.6354 109.043 82.8253C109.518 83.0151 109.982 83.1101 110.436 83.1101C110.847 83.1101 111.174 83.0362 111.417 82.8886C111.67 82.7409 111.796 82.5194 111.796 82.2241C111.796 81.9183 111.643 81.7126 111.337 81.6071C111.032 81.4911 110.604 81.3487 110.056 81.18C109.444 80.9901 108.933 80.795 108.521 80.5946C108.11 80.3942 107.799 80.1517 107.588 79.8669C107.388 79.5821 107.287 79.213 107.287 78.7595C107.287 77.9474 107.593 77.2988 108.205 76.8136C108.817 76.3284 109.629 76.0859 110.641 76.0859C111.232 76.0859 111.791 76.1808 112.318 76.3706C112.846 76.5499 113.325 76.8452 113.758 77.2566L112.904 78.6013C112.092 77.9685 111.306 77.6521 110.546 77.6521C110.209 77.6521 109.908 77.7154 109.645 77.8419C109.392 77.9685 109.265 78.19 109.265 78.5064C109.265 78.8017 109.386 79.0126 109.629 79.1392C109.882 79.2657 110.262 79.4028 110.768 79.5505C111.422 79.7509 111.975 79.946 112.429 80.1358C112.893 80.3257 113.241 80.5683 113.473 80.8636C113.716 81.1589 113.837 81.5597 113.837 82.0659C113.837 82.8886 113.536 83.5319 112.935 83.996C112.334 84.46 111.527 84.6921 110.515 84.6921Z" fill="white"/>
<path d="M120.2 84.1067C119.915 84.2333 119.562 84.3599 119.14 84.4864C118.729 84.613 118.302 84.6763 117.859 84.6763C117.468 84.6763 117.11 84.6077 116.783 84.4706C116.456 84.3335 116.192 84.1173 115.992 83.822C115.802 83.5161 115.707 83.1206 115.707 82.6354V77.8736H114.616V76.2441H115.707V73.5546H117.827V76.2441H119.567V77.8736H117.827V81.9235C117.827 82.2083 117.901 82.414 118.049 82.5405C118.207 82.6671 118.397 82.7304 118.618 82.7304C118.84 82.7304 119.056 82.6935 119.267 82.6196C119.478 82.5458 119.646 82.4825 119.773 82.4298L120.2 84.1067Z" fill="white"/>
<path d="M121.304 75.0892V72.9851H123.424V75.0892H121.304ZM121.304 84.5339V76.2441H123.424V84.5339H121.304Z" fill="white"/>
<path d="M133.041 84.5339H130.921V79.8827C130.921 79.2183 130.805 78.7331 130.573 78.4273C130.341 78.1214 130.019 77.9685 129.608 77.9685C129.323 77.9685 129.033 78.0423 128.738 78.19C128.453 78.3376 128.195 78.5433 127.963 78.807C127.731 79.0601 127.562 79.3554 127.456 79.6929V84.5339H125.336V76.2441H127.251V77.7786C127.557 77.2618 128 76.8558 128.58 76.5605C129.16 76.2546 129.814 76.1017 130.541 76.1017C131.058 76.1017 131.48 76.1966 131.807 76.3865C132.134 76.5658 132.387 76.8136 132.566 77.13C132.746 77.4359 132.867 77.7839 132.93 78.1741C133.004 78.5644 133.041 78.9599 133.041 79.3607V84.5339Z" fill="white"/>
<path d="M138.127 84.5813C137.389 84.5813 136.74 84.3915 136.181 84.0118C135.622 83.6321 135.185 83.1259 134.868 82.4931C134.552 81.8497 134.394 81.1483 134.394 80.389C134.394 79.5874 134.557 78.865 134.884 78.2216C135.211 77.5677 135.665 77.0509 136.245 76.6712C136.825 76.2915 137.495 76.1017 138.254 76.1017C138.897 76.1017 139.462 76.2493 139.947 76.5447C140.432 76.8294 140.833 77.2144 141.149 77.6995V76.2441H143V84.1384C143 84.961 142.8 85.6624 142.399 86.2425C142.009 86.8331 141.465 87.2813 140.769 87.5872C140.073 87.9036 139.282 88.0618 138.396 88.0618C137.489 88.0618 136.725 87.9089 136.102 87.603C135.491 87.3077 134.963 86.8858 134.52 86.3374L135.675 85.2141C135.992 85.6044 136.387 85.9102 136.862 86.1317C137.347 86.3532 137.858 86.4639 138.396 86.4639C138.839 86.4639 139.245 86.3796 139.614 86.2108C139.994 86.0526 140.3 85.7995 140.532 85.4514C140.764 85.1139 140.88 84.6763 140.88 84.1384V83.0942C140.606 83.5688 140.216 83.938 139.709 84.2016C139.214 84.4548 138.686 84.5813 138.127 84.5813ZM138.839 82.8886C139.303 82.8886 139.72 82.7515 140.089 82.4772C140.469 82.203 140.732 81.8761 140.88 81.4964V79.5189C140.69 79.0337 140.39 78.6435 139.978 78.3482C139.578 78.0529 139.156 77.9052 138.713 77.9052C138.28 77.9052 137.901 78.0265 137.574 78.2691C137.257 78.5116 137.009 78.828 136.83 79.2183C136.651 79.598 136.561 80.0093 136.561 80.4523C136.561 80.9058 136.661 81.3171 136.862 81.6862C137.062 82.0554 137.331 82.3507 137.669 82.5722C138.017 82.7831 138.407 82.8886 138.839 82.8886Z" fill="white"/>
<path d="M42.8464 21.9122C43.9451 21.8023 47.9001 21.4727 52.9538 28.3941C58.0075 35.3154 57.1286 42.0171 65.6979 43.7749C62.5118 45.8989 54.9093 47.9716 49.9875 39.2705C43.8352 28.3941 42.6448 26.5264 35.6595 26.9659C37.6207 22.6506 42.0113 21.9957 42.8464 21.9122Z" fill="#FA6232"/>
<path d="M49.9875 15.65C52.7341 11.3654 60.5562 6.11396 69.8726 19.3853C74.5771 26.0869 77.6729 37.9521 87.4507 43.7749C87.2309 43.7749 77.6729 50.9159 69.8726 38.5014C62.0724 26.0869 60.5343 13.3429 49.9875 15.65Z" fill="#FA6232"/>
<path d="M62.5118 4.3341C65.1485 1.73402 71.8721 -2.41147 77.6729 1.80726C84.9238 7.08067 92.3945 25.0982 95.1411 28.3941C97.8876 31.6899 101.843 37.7324 107.446 38.5014C107.556 38.5014 103.71 48.389 95.1411 40.6987C86.5718 33.0083 82.0674 22.791 80.8589 20.5938C79.6504 18.3966 72.0699 1.6974 62.5118 4.3341Z" fill="#FA6232"/>
<path d="M84.2647 0.928361C89.5014 1.14809 100.041 4.68567 100.305 17.0782C100.195 16.9683 97.6679 15.3204 93.9326 16.5289C94.0424 16.6387 94.8115 4.77356 84.2647 0.928361Z" fill="#FA6232"/>
<path d="M43.2859 44.6538C40.5027 43.5552 34.8924 39.5342 34.7166 32.2393C34.4603 30.7745 35.178 28.0645 40.0999 28.9434C40.0999 29.273 35.8153 35.4254 43.2859 44.6538Z" fill="white"/>
<path d="M48.3396 21.1432C48.5227 19.3122 50.1853 16.1994 55.3708 18.3966C55.1511 18.3966 53.5005 20.484 53.9426 25.5377C52.9538 24.3292 50.449 21.7584 48.3396 21.1432Z" fill="white"/>
<path d="M59.3259 9.05825C60.278 7.22721 63.6545 4.33415 69.5431 7.41031C69.3234 7.63004 67.0163 9.05821 66.3571 12.3541C65.588 11.4386 63.1051 9.49769 59.3259 9.05825Z" fill="white"/>
<path d="M96.1299 18.3966C101.696 19.0924 111.818 23.6041 107.775 36.0845C107.775 35.9746 105.688 36.7436 101.733 32.5689C101.733 32.459 106.018 26.0871 96.1299 18.3966Z" fill="white"/>
</svg>
