<svg width="145" height="90" viewBox="0 0 145 90" fill="none" xmlns="http://www.w3.org/2000/svg">
<path d="M0 56.3098L8.35494 84.0482C8.68914 85.1993 10.2487 87.4793 13.8135 87.3902C17.6011 87.3902 18.4923 84.1596 19.6063 82.2658C20.4975 80.7508 25.7704 71.163 28.2954 66.5585C31.6374 72.277 38.3659 83.7808 38.5441 84.0482C38.7669 84.3824 39.9923 87.3902 43.8913 87.3902C47.7497 87.3902 48.7717 84.1173 49.3323 82.3219L49.3499 82.2658C49.666 81.2541 52.0196 72.6684 54.1428 64.8875C55.0122 61.7016 55.843 58.6506 56.4794 56.3098H50.1297C49.1642 56.2726 47.0996 56.7108 46.5649 58.7606C46.0302 60.8103 43.5942 70.7545 42.4431 75.4704L33.6426 58.7606C33.0484 57.6837 31.1472 55.5523 28.2954 55.6414C25.4436 55.7305 23.6909 57.758 23.171 58.7606L14.3705 75.4704L9.91453 58.7606C9.80313 57.9436 8.91194 56.3098 6.23836 56.3098H0Z" fill="#FA6232"/>
<path d="M83.5494 56.3098H56.4794C55.843 58.6506 55.0122 61.7016 54.1428 64.8875C55.2145 63.9963 58.5236 64.0706 60.0442 64.2191H73.8577C76.4422 64.2191 78.7221 62.3625 79.5391 61.4341L83.5494 56.3098Z" fill="#FA6232"/>
<path d="M54.3628 68.1177C54.4371 68.3405 55.6551 68.7861 59.9328 68.7861H74.9717C77.8309 68.8232 83.6163 70.0115 83.8836 74.4674C84.2178 80.0374 83.995 86.053 75.9743 86.3872C69.5577 86.6545 54.5856 86.7956 47.9017 86.8328C48.5701 86.4614 50.1519 84.4042 51.1323 79.1462H73.1893C73.8948 78.9977 75.3059 78.3664 75.3059 77.0296C75.3059 75.3586 73.7463 74.8016 73.1893 74.8016H57.5934C56.1824 74.8759 53.182 74.913 52.469 74.4674C52.5582 74.4674 53.7687 70.2343 54.3628 68.1177Z" fill="white"/>
<path d="M97.2096 74.3267V85.7161H95.012V80.8556H89.8466V85.7161H87.6329V74.3267H89.8466V78.9306H95.012V74.3267H97.2096Z" fill="white"/>
<path d="M103.118 85.8766C102.198 85.8766 101.407 85.6787 100.744 85.283C100.092 84.8766 99.589 84.3419 99.2361 83.6789C98.8832 83.0158 98.7068 82.2993 98.7068 81.5293C98.7068 80.7486 98.8832 80.0268 99.2361 79.3637C99.5997 78.7007 100.108 78.1713 100.76 77.7756C101.423 77.3692 102.209 77.166 103.118 77.166C104.027 77.166 104.808 77.3692 105.46 77.7756C106.123 78.1713 106.631 78.7007 106.984 79.3637C107.337 80.0268 107.514 80.7486 107.514 81.5293C107.514 82.2993 107.337 83.0158 106.984 83.6789C106.631 84.3419 106.123 84.8766 105.46 85.283C104.808 85.6787 104.027 85.8766 103.118 85.8766ZM100.92 81.5293C100.92 82.0213 101.017 82.4597 101.209 82.8447C101.402 83.219 101.664 83.5131 101.995 83.727C102.327 83.9409 102.701 84.0478 103.118 84.0478C103.525 84.0478 103.894 83.9409 104.225 83.727C104.557 83.5024 104.819 83.203 105.011 82.8287C105.214 82.4437 105.316 82.0052 105.316 81.5133C105.316 81.032 105.214 80.6043 105.011 80.23C104.819 79.845 104.557 79.5455 104.225 79.3316C103.894 79.1071 103.525 78.9948 103.118 78.9948C102.701 78.9948 102.327 79.1071 101.995 79.3316C101.664 79.5455 101.402 79.845 101.209 80.23C101.017 80.6043 100.92 81.0374 100.92 81.5293Z" fill="white"/>
<path d="M112.06 85.8766C111.344 85.8766 110.659 85.7589 110.007 85.5237C109.355 85.2884 108.793 84.9408 108.323 84.481L109.093 83.0853C109.595 83.4917 110.087 83.7912 110.569 83.9837C111.05 84.1762 111.52 84.2724 111.98 84.2724C112.397 84.2724 112.729 84.1976 112.975 84.0478C113.231 83.8981 113.36 83.6735 113.36 83.3741C113.36 83.064 113.205 82.8554 112.895 82.7485C112.584 82.6308 112.151 82.4865 111.595 82.3154C110.975 82.1229 110.456 81.925 110.039 81.7218C109.622 81.5186 109.307 81.2727 109.093 80.9839C108.89 80.6952 108.788 80.3209 108.788 79.861C108.788 79.0375 109.098 78.3798 109.718 77.8879C110.339 77.396 111.162 77.15 112.189 77.15C112.788 77.15 113.354 77.2462 113.889 77.4387C114.424 77.6205 114.91 77.92 115.349 78.3371L114.483 79.7006C113.659 79.0589 112.863 78.7381 112.093 78.7381C111.75 78.7381 111.446 78.8023 111.178 78.9306C110.921 79.0589 110.793 79.2835 110.793 79.6043C110.793 79.9038 110.916 80.1177 111.162 80.246C111.419 80.3743 111.804 80.5134 112.317 80.6631C112.98 80.8663 113.542 81.0641 114.001 81.2566C114.472 81.4491 114.825 81.6951 115.06 81.9945C115.306 82.294 115.429 82.7003 115.429 83.2137C115.429 84.0478 115.124 84.7002 114.515 85.1707C113.905 85.6413 113.087 85.8766 112.06 85.8766Z" fill="white"/>
<path d="M121.881 85.283C121.592 85.4114 121.234 85.5397 120.806 85.668C120.389 85.7964 119.956 85.8605 119.507 85.8605C119.111 85.8605 118.748 85.791 118.416 85.652C118.085 85.513 117.817 85.2937 117.614 84.9943C117.422 84.6841 117.325 84.2831 117.325 83.7912V78.9627H116.219V77.3104H117.325V74.5834H119.475V77.3104H121.24V78.9627H119.475V83.0693C119.475 83.3581 119.55 83.5666 119.7 83.6949C119.86 83.8233 120.052 83.8874 120.277 83.8874C120.502 83.8874 120.721 83.85 120.935 83.7751C121.149 83.7003 121.32 83.6361 121.448 83.5826L121.881 85.283Z" fill="white"/>
<path d="M123.001 76.1394V74.0059H125.15V76.1394H123.001ZM123.001 85.7161V77.3104H125.15V85.7161H123.001Z" fill="white"/>
<path d="M134.902 85.7161H132.752V81C132.752 80.3262 132.634 79.8343 132.399 79.5241C132.164 79.214 131.838 79.0589 131.421 79.0589C131.132 79.0589 130.838 79.1338 130.538 79.2835C130.25 79.4332 129.988 79.6418 129.752 79.9091C129.517 80.1658 129.346 80.4652 129.239 80.8075V85.7161H127.089V77.3104H129.03V78.8664C129.341 78.3424 129.79 77.9307 130.378 77.6312C130.966 77.3211 131.629 77.166 132.367 77.166C132.891 77.166 133.319 77.2623 133.65 77.4548C133.982 77.6366 134.239 77.8879 134.42 78.2087C134.602 78.5189 134.725 78.8718 134.789 79.2675C134.864 79.6632 134.902 80.0642 134.902 80.4706V85.7161Z" fill="white"/>
<path d="M140.059 85.7643C139.311 85.7643 138.653 85.5718 138.086 85.1868C137.519 84.8018 137.076 84.2885 136.755 83.6468C136.434 82.9944 136.273 82.2833 136.273 81.5133C136.273 80.7005 136.439 79.9679 136.771 79.3156C137.102 78.6525 137.562 78.1285 138.15 77.7435C138.738 77.3585 139.418 77.166 140.188 77.166C140.84 77.166 141.412 77.3158 141.904 77.6152C142.396 77.9039 142.802 78.2943 143.123 78.7862V77.3104H145V85.3151C145 86.1493 144.797 86.8604 144.39 87.4486C143.995 88.0475 143.444 88.502 142.738 88.8122C142.032 89.133 141.23 89.2934 140.332 89.2934C139.412 89.2934 138.637 89.1383 138.006 88.8282C137.386 88.5288 136.851 88.101 136.402 87.5449L137.573 86.4059C137.894 86.8016 138.295 87.1118 138.776 87.3363C139.268 87.5609 139.787 87.6732 140.332 87.6732C140.781 87.6732 141.193 87.5877 141.567 87.4165C141.952 87.2561 142.262 86.9995 142.498 86.6466C142.733 86.3043 142.85 85.8605 142.85 85.3151V84.2564C142.572 84.7376 142.177 85.1119 141.663 85.3793C141.161 85.6359 140.626 85.7643 140.059 85.7643ZM140.781 84.0478C141.252 84.0478 141.674 83.9088 142.048 83.6308C142.433 83.3527 142.701 83.0212 142.85 82.6362V80.631C142.658 80.1391 142.353 79.7434 141.936 79.4439C141.53 79.1445 141.102 78.9948 140.653 78.9948C140.214 78.9948 139.829 79.1177 139.498 79.3637C139.177 79.6097 138.926 79.9305 138.744 80.3262C138.562 80.7112 138.471 81.1283 138.471 81.5774C138.471 82.0373 138.573 82.4544 138.776 82.8287C138.979 83.203 139.252 83.5024 139.594 83.727C139.947 83.9409 140.343 84.0478 140.781 84.0478Z" fill="white"/>
<path d="M43.4457 22.2186C44.5597 22.1073 48.5701 21.773 53.6945 28.7912C58.8188 35.8093 57.9276 42.6047 66.6168 44.3871C63.3862 46.5408 55.6774 48.6426 50.6867 39.8197C44.4483 28.7912 43.2413 26.8974 36.1583 27.343C38.1469 22.9674 42.5989 22.3033 43.4457 22.2186Z" fill="#FA6232"/>
<path d="M50.6867 15.8689C53.4717 11.5243 61.4032 6.19947 70.8499 19.6565C75.6202 26.4518 78.7593 38.483 88.6738 44.3871C88.451 44.3871 78.7593 51.628 70.8499 39.0399C62.9406 26.4518 61.381 13.5295 50.6867 15.8689Z" fill="#FA6232"/>
<path d="M63.3862 4.39472C66.0598 1.75827 72.8774 -2.44519 78.7593 1.83254C86.1116 7.1797 93.6868 25.4493 96.4718 28.7912C99.2567 32.1331 103.267 38.2601 108.948 39.0399C109.06 39.0399 105.161 49.0658 96.4718 41.2679C87.7826 33.4699 83.2153 23.1098 81.9899 20.8818C80.7645 18.6539 73.0779 1.72114 63.3862 4.39472Z" fill="#FA6232"/>
<path d="M85.4432 0.941345C90.7533 1.16414 101.44 4.7512 101.708 17.317C101.596 17.2056 99.0339 15.5346 95.2464 16.76C95.3578 16.8714 96.1376 4.84032 85.4432 0.941345Z" fill="#FA6232"/>
<path d="M43.8914 45.2787C41.0693 44.1647 35.3805 40.0875 35.2022 32.6906C34.9423 31.2052 35.6701 28.4574 40.6608 29.3486C40.6608 29.6828 36.3163 35.9211 43.8914 45.2787Z" fill="white"/>
<path d="M49.0157 21.4392C49.2014 19.5826 50.8872 16.4263 56.1453 18.6543C55.9225 18.6543 54.2489 20.7708 54.6971 25.8952C53.6945 24.6698 51.1546 22.0631 49.0157 21.4392Z" fill="white"/>
<path d="M60.1557 9.18526C61.1211 7.32861 64.5448 4.39509 70.5158 7.51427C70.293 7.73707 67.9536 9.18523 67.2852 12.5272C66.5054 11.5989 63.9878 9.63085 60.1557 9.18526Z" fill="white"/>
<path d="M97.4744 18.6543C103.119 19.3598 113.382 23.9345 109.283 36.5895C109.283 36.4781 107.166 37.2578 103.156 33.0247C103.156 32.9133 107.5 26.4522 97.4744 18.6543Z" fill="white"/>
</svg>
