<svg width="28" height="28" viewBox="0 0 28 28" fill="none" xmlns="http://www.w3.org/2000/svg">
<circle opacity="0.2" cx="14" cy="14" r="14" fill="white"/>
<g opacity="0.7">
<path d="M21.625 7.5625H7.375C7.06006 7.5625 6.75801 7.68761 6.53531 7.91031C6.31261 8.13301 6.1875 8.43506 6.1875 8.75V18.25C6.1875 18.5649 6.31261 18.867 6.53531 19.0897C6.75801 19.3124 7.06006 19.4375 7.375 19.4375H21.625C21.9399 19.4375 22.242 19.3124 22.4647 19.0897C22.6874 18.867 22.8125 18.5649 22.8125 18.25V8.75C22.8125 8.43506 22.6874 8.13301 22.4647 7.91031C22.242 7.68761 21.9399 7.5625 21.625 7.5625ZM20.3187 8.75L14.5 12.7756L8.68125 8.75H20.3187ZM7.375 18.25V9.29031L14.1616 13.9869C14.261 14.0558 14.379 14.0928 14.5 14.0928C14.621 14.0928 14.739 14.0558 14.8384 13.9869L21.625 9.29031V18.25H7.375Z" fill="white"/>
</g>
</svg>
