<svg width="88" height="94" viewBox="0 0 88 94" fill="none" xmlns="http://www.w3.org/2000/svg">
<circle cx="44" cy="44" r="44" fill="url(#paint0_linear_42_145)"/>
<path d="M68 39.5341C68 52.3407 60.5377 63.1052 50.4299 66.1841C48.5356 66.7611 46.5484 67.0682 44.5 67.0682C42.1806 67.0682 39.9398 66.6745 37.8234 65.9411C28.0969 62.5703 21 52.0233 21 39.5341C21 24.3274 31.5213 12 44.5 12C57.4787 12 68 24.3274 68 39.5341Z" fill="#1B567C"/>
<path d="M44.5 67.0682C42.1806 67.0682 39.9398 66.6745 37.8234 65.9411L36.9888 68.4735C36.8277 69.1907 36.9888 70.634 38.9215 70.6692C39.5799 70.6811 40.5933 70.6867 41.7327 70.6881C43.1949 70.6901 44.8645 70.6853 46.257 70.6791C46.9647 70.676 47.6009 70.6724 48.1019 70.6692C48.9072 70.757 50.5968 70.6867 50.9131 69.7031C51.2293 68.7194 50.7227 66.9473 50.4299 66.1841C48.5356 66.7611 46.5484 67.0682 44.5 67.0682Z" fill="#1B567C"/>
<path d="M41.7327 70.6881C42.6698 71.8382 44.6318 74.3053 44.9832 74.9728C45.3346 75.6402 45.6274 76.4512 45.7299 76.7732C45.8763 77.1099 46.011 77.9413 45.3785 78.5737C44.746 79.2061 42.948 80.8572 42.128 81.6038C41.7766 82.0136 41.0299 82.93 40.8542 83.3164C40.6346 83.7995 40.5907 84.7217 40.5907 85.0291C40.5907 85.3365 40.7664 86.5661 41.1617 87.2687C41.557 87.9713 42.6551 89.8596 43.6654 90.8696C44.6757 91.8797 46.0374 93.3727 47.1355 93.8997C47.6275 94.2159 48.4826 93.7094 48.8486 93.4167C49.3025 93.0653 49.9555 92.0905 48.9364 91.0014C47.6626 89.64 46.5645 89.0253 45.5542 87.7078C44.746 86.6539 44.3097 85.8342 44.1925 85.556C44.0607 85.2486 44.0256 84.4406 44.9393 83.6677C45.8529 82.8949 47.1062 81.8819 47.6187 81.472L48.8047 79.8911C49.1561 79.3788 49.7535 78.0028 49.3318 76.5976C48.8047 74.841 48.014 73.0165 46.257 70.6791C44.8645 70.6853 43.1949 70.6901 41.7327 70.6881Z" fill="#1B567C"/>
<defs>
<linearGradient id="paint0_linear_42_145" x1="44" y1="0" x2="44" y2="88" gradientUnits="userSpaceOnUse">
<stop stop-color="#67A8D2" stop-opacity="0.88"/>
<stop offset="1" stop-color="#67A8D2" stop-opacity="0"/>
</linearGradient>
</defs>
</svg>
