<svg width="28" height="28" viewBox="0 0 28 28" fill="none" xmlns="http://www.w3.org/2000/svg">
<circle opacity="0.2" cx="14" cy="14" r="14" fill="white"/>
<g opacity="0.7">
<path d="M18.865 22.72C18.6969 22.7195 18.5292 22.7011 18.365 22.665C15.2383 22.0182 12.3578 20.5017 10.055 18.29C7.80134 16.0734 6.2383 13.2513 5.55501 10.165C5.47444 9.78033 5.49421 9.38143 5.61243 9.00664C5.73064 8.63185 5.94332 8.29379 6.23001 8.02498L8.23001 6.09998C8.33216 6.00337 8.45354 5.92939 8.58621 5.88287C8.71889 5.83635 8.85989 5.81832 9.00001 5.82998C9.14529 5.84514 9.28549 5.89194 9.41074 5.96709C9.536 6.04224 9.64326 6.14392 9.72501 6.26498L12.225 9.95998C12.3188 10.1034 12.364 10.273 12.3541 10.444C12.3442 10.6151 12.2797 10.7784 12.17 10.91L10.915 12.41C11.4148 13.5162 12.1227 14.516 13 15.355C13.8717 16.2244 14.9019 16.9186 16.035 17.4L17.59 16.165C17.7206 16.0618 17.8795 16.0007 18.0457 15.99C18.2118 15.9793 18.3772 16.0194 18.52 16.105L22.295 18.545C22.4246 18.6223 22.5349 18.728 22.6178 18.854C22.7007 18.9801 22.7541 19.1233 22.7738 19.2729C22.7935 19.4225 22.7791 19.5746 22.7317 19.7178C22.6843 19.861 22.6051 19.9917 22.5 20.1L20.55 22.03C20.3285 22.2504 20.0656 22.4248 19.7764 22.5432C19.4872 22.6617 19.1775 22.7217 18.865 22.72ZM8.92001 6.81998L6.92001 8.74498C6.75873 8.89525 6.63935 9.08492 6.5736 9.29532C6.50785 9.50572 6.49799 9.72962 6.54501 9.94498C7.18037 12.841 8.64087 15.4911 10.75 17.575C12.9171 19.6558 15.6278 21.0822 18.57 21.69C18.7927 21.7365 19.0235 21.7271 19.2416 21.6625C19.4598 21.598 19.6585 21.4803 19.82 21.32L21.77 19.39L18.125 17.035L16.455 18.365C16.3911 18.4156 16.3157 18.4498 16.2356 18.4646C16.1554 18.4794 16.0728 18.4744 15.995 18.45C14.6084 17.9391 13.3517 17.1281 12.315 16.075C11.2427 15.0736 10.4103 13.843 9.88001 12.475C9.85757 12.3922 9.85683 12.305 9.87784 12.2218C9.89886 12.1386 9.94093 12.0622 10 12L11.35 10.385L8.92001 6.81998Z" fill="white"/>
</g>
</svg>
