<svg width="151" height="39" viewBox="0 0 151 39" fill="none" xmlns="http://www.w3.org/2000/svg">
<circle cx="3.5" cy="3.5" r="3.5" fill="white"/>
<path d="M80.2743 37.958L80.2925 36.9581L80.2743 37.958ZM151 22.4771L139.614 24.3961L146.969 33.2976L151 22.4771ZM2.17136 4.55978C2.79627 5.48483 3.54311 6.48007 4.41033 7.52794L5.9511 6.25278C5.12013 5.24872 4.41306 4.30532 3.82864 3.44022L2.17136 4.55978ZM9.49739 12.8956C11.155 14.4504 13.0255 16.0534 15.1082 17.6641L16.3317 16.082C14.2983 14.5095 12.4762 12.9476 10.8656 11.4369L9.49739 12.8956ZM21.107 21.9117C23.0766 23.189 25.1829 24.4487 27.4256 25.67L28.3821 23.9135C26.1848 22.717 24.1224 21.4834 22.1952 20.2336L21.107 21.9117ZM33.9879 28.9383C36.1492 29.9194 38.4128 30.8571 40.7786 31.7378L41.4764 29.8634C39.1546 28.9991 36.934 28.0792 34.8145 27.1172L33.9879 28.9383ZM47.7325 34.0625C50.0147 34.7417 52.378 35.3654 54.8223 35.9239L55.2678 33.9741C52.8658 33.4253 50.5442 32.8126 48.3031 32.1456L47.7325 34.0625ZM62.0157 37.332C64.371 37.7179 66.7927 38.0427 69.2807 38.2992L69.4858 36.3097C67.0374 36.0573 64.6552 35.7378 62.3391 35.3583L62.0157 37.332ZM76.5908 38.841C77.7985 38.8962 79.0203 38.9353 80.2562 38.9578L80.2925 36.9581C79.0749 36.936 77.8715 36.8974 76.6822 36.8431L76.5908 38.841ZM80.2562 38.9578C81.5095 38.9805 82.7447 38.9939 83.9619 38.9984L83.9692 36.9984C82.7617 36.994 81.5362 36.9807 80.2925 36.9581L80.2562 38.9578ZM91.3686 38.9117C93.9219 38.8415 96.3871 38.7304 98.7659 38.5828L98.642 36.5866C96.2866 36.7328 93.8443 36.8428 91.3136 36.9125L91.3686 38.9117ZM106.144 37.9849C108.717 37.7255 111.174 37.4222 113.517 37.0819L113.229 35.1026C110.916 35.4387 108.488 35.7385 105.944 35.995L106.144 37.9849ZM120.82 35.8371C123.403 35.3278 125.818 34.7736 128.068 34.1876L127.564 32.2521C125.354 32.8277 122.978 33.373 120.433 33.8749L120.82 35.8371ZM135.209 32.052C137.826 31.1568 140.137 30.2279 142.154 29.3001L141.319 27.4831C139.368 28.3806 137.12 29.2847 134.561 30.1597L135.209 32.052Z" fill="white"/>
</svg>
