<svg width="158" height="312" viewBox="0 0 158 312" fill="none" xmlns="http://www.w3.org/2000/svg">
<g opacity="0.2" clip-path="url(#clip0_186_73)">
<path d="M83.0569 144C85.5265 144 87.7357 145.537 88.5673 147.839L94.4977 164.278C96.6229 164.807 98.4457 165.336 99.9913 165.89C101.68 166.495 103.855 167.411 106.543 168.662L120.353 161.354C121.48 160.757 122.771 160.542 124.031 160.74C125.291 160.938 126.453 161.54 127.342 162.455L139.488 175.013C141.101 176.684 141.554 179.129 140.647 181.262L134.171 196.441C135.246 198.415 136.103 200.104 136.758 201.515C137.464 203.052 138.337 205.169 139.379 207.899L154.474 214.367C156.742 215.333 158.144 217.601 157.993 220.028L156.884 237.458C156.809 238.591 156.402 239.676 155.715 240.579C155.028 241.483 154.091 242.165 153.02 242.54L138.724 247.622C138.312 249.596 137.884 251.285 137.43 252.713C136.698 254.918 135.863 257.088 134.927 259.214L142.109 275.09C142.616 276.206 142.752 277.454 142.498 278.653C142.244 279.852 141.613 280.938 140.698 281.752L127.039 293.948C126.14 294.748 125.017 295.254 123.822 295.398C122.627 295.542 121.417 295.318 120.353 294.755L106.274 287.296C104.072 288.462 101.8 289.491 99.4705 290.378L93.3217 292.68L87.8617 307.8C87.4571 308.907 86.7272 309.866 85.7678 310.551C84.8084 311.237 83.6643 311.616 82.4857 311.639L66.5257 312C65.3158 312.032 64.1257 311.688 63.1194 311.015C62.113 310.343 61.3398 309.375 60.9061 308.245L54.4717 291.218C52.2763 290.468 50.1026 289.656 47.9533 288.782C46.1953 288.022 44.4639 287.201 42.7621 286.321L26.8021 293.142C25.7505 293.591 24.5911 293.724 23.4651 293.526C22.3391 293.327 21.2951 292.806 20.4601 292.025L8.64968 280.945C7.77038 280.124 7.17155 279.047 6.9379 277.867C6.70425 276.686 6.8476 275.462 7.34768 274.368L14.2105 259.416C13.2978 257.645 12.4516 255.841 11.6737 254.006C10.7657 251.761 9.92527 249.49 9.15368 247.194L-5.88232 242.616C-7.10451 242.247 -8.17052 241.484 -8.9148 240.447C-9.65908 239.409 -10.04 238.155 -9.99832 236.879L-9.41032 220.742C-9.36846 219.69 -9.03957 218.668 -8.4592 217.789C-7.87884 216.909 -7.06908 216.205 -6.11752 215.753L9.65768 208.176C10.3885 205.496 11.0269 203.413 11.5897 201.893C12.3821 199.862 13.2622 197.867 14.2273 195.912L7.38968 181.464C6.87078 180.367 6.7132 179.133 6.93961 177.941C7.16601 176.749 7.76474 175.659 8.64968 174.828L20.4433 163.69C21.27 162.91 22.3045 162.386 23.4222 162.18C24.5398 161.974 25.6931 162.096 26.7433 162.53L42.6865 169.116C44.4505 167.94 46.0465 166.991 47.4913 166.226C49.2133 165.311 51.5149 164.353 54.4129 163.32L59.9569 147.856C60.3667 146.724 61.1159 145.746 62.1022 145.056C63.0884 144.366 64.2636 143.997 65.4673 144H83.0569ZM74.2033 202.96C60.2005 202.96 48.8521 214.174 48.8521 228.017C48.8521 241.86 60.2005 253.082 74.2033 253.082C88.1977 253.082 99.5461 241.86 99.5461 228.017C99.5461 214.174 88.2061 202.96 74.2033 202.96Z" fill="#67A8D2"/>
</g>
<g opacity="0.2" clip-path="url(#clip1_186_73)">
<path d="M-8.94312 1.53312e-05C-6.47353 1.53312e-05 -4.26432 1.53722 -3.43272 3.83881L2.49767 20.2776C4.62287 20.8068 6.44567 21.336 7.99127 21.8904C9.67967 22.4952 11.8553 23.4108 14.5433 24.6624L28.3529 17.3544C29.4801 16.7572 30.7705 16.5417 32.0306 16.7401C33.2907 16.9385 34.4525 17.5402 35.3417 18.4548L47.4881 31.0128C49.1009 32.6844 49.5545 35.1288 48.6473 37.2624L42.1709 52.4412C43.2461 54.4152 44.1029 56.1036 44.7581 57.5148C45.4637 59.052 46.3373 61.1688 47.3789 63.8988L62.4737 70.3668C64.7417 71.3328 66.1445 73.6008 65.9933 76.0284L64.8845 93.4584C64.8087 94.5908 64.4021 95.6759 63.7152 96.5794C63.0284 97.4828 62.0914 98.1646 61.0205 98.5404L46.7237 103.622C46.3121 105.596 45.8837 107.285 45.4301 108.713C44.6985 110.918 43.8631 113.088 42.9269 115.214L50.1089 131.09C50.6158 132.206 50.7522 133.454 50.4983 134.653C50.2444 135.852 49.6134 136.938 48.6977 137.752L35.0393 149.948C34.1398 150.748 33.0173 151.254 31.8223 151.398C30.6273 151.542 29.4167 151.318 28.3529 150.755L14.2745 143.296C12.0719 144.462 9.79958 145.491 7.47047 146.378L1.32168 148.68L-4.13833 163.8C-4.54292 164.907 -5.2728 165.866 -6.23219 166.551C-7.19159 167.237 -8.33567 167.616 -9.51432 167.639L-25.4743 168C-26.6842 168.032 -27.8743 167.688 -28.8806 167.015C-29.887 166.343 -30.6602 165.375 -31.0939 164.245L-37.5283 147.218C-39.7237 146.468 -41.8974 145.656 -44.0467 144.782C-45.8047 144.022 -47.5361 143.201 -49.2379 142.321L-65.1979 149.142C-66.2495 149.591 -67.4089 149.724 -68.5349 149.526C-69.6609 149.327 -70.7049 148.806 -71.5399 148.025L-83.3503 136.945C-84.2296 136.124 -84.8285 135.047 -85.0621 133.867C-85.2958 132.686 -85.1524 131.462 -84.6523 130.368L-77.7895 115.416C-78.7022 113.645 -79.5484 111.841 -80.3263 110.006C-81.2343 107.761 -82.0747 105.49 -82.8463 103.194L-97.8823 98.616C-99.1045 98.2466 -100.171 97.484 -100.915 96.4465C-101.659 95.4091 -102.04 94.1549 -101.998 92.8788L-101.41 76.7424C-101.368 75.6896 -101.04 74.6682 -100.459 73.7888C-99.8788 72.9093 -99.0691 72.2053 -98.1175 71.7528L-82.3423 64.176C-81.6115 61.4964 -80.9731 59.4132 -80.4103 57.8928C-79.6179 55.8621 -78.7378 53.8666 -77.7727 51.912L-84.6103 37.464C-85.1292 36.3668 -85.2868 35.1333 -85.0604 33.9409C-84.834 32.7485 -84.2353 31.6587 -83.3503 30.828L-71.5567 19.6896C-70.73 18.9099 -69.6955 18.3856 -68.5778 18.18C-67.4602 17.9743 -66.3069 18.096 -65.2567 18.5304L-49.3135 25.116C-47.5495 23.94 -45.9535 22.9908 -44.5087 22.2264C-42.7867 21.3108 -40.4851 20.3532 -37.5871 19.32L-32.0431 3.85562C-31.6333 2.72387 -30.8841 1.74622 -29.8978 1.05616C-28.9116 0.366094 -27.7364 -0.00274051 -26.5327 1.53312e-05H-8.94312ZM-13.0591 11.5668H-22.4083L-27.4903 25.7964C-27.7891 26.6261 -28.2726 27.3771 -28.9041 27.9927C-29.5357 28.6082 -30.2988 29.0722 -31.1359 29.3496C-34.7983 30.5676 -37.4443 31.6176 -38.9899 32.4324C-40.6279 33.2976 -42.7195 34.6164 -45.2059 36.3804C-46.0197 36.9515 -46.9645 37.3079 -47.9528 37.4166C-48.941 37.5253 -49.9407 37.3827 -50.8591 37.002L-66.2311 30.66L-72.2203 36.3216L-65.9791 49.5096C-65.2231 51.1056 -65.2399 52.9536 -66.0295 54.5244C-67.7095 57.8928 -68.8435 60.3792 -69.4147 61.908C-69.9859 63.4284 -70.7503 66.0408 -71.6827 69.6528C-71.8938 70.4714 -72.2813 71.2339 -72.8182 71.8869C-73.3551 72.5399 -74.0283 73.0675 -74.7907 73.4328L-89.8267 80.6484L-90.1291 88.8804L-76.5211 93.0132C-74.7151 93.5592 -73.2871 94.9452 -72.6907 96.726C-71.3467 100.758 -70.2715 103.732 -69.4987 105.596C-68.4747 107.963 -67.3423 110.281 -66.1051 112.543C-65.2567 114.122 -65.1979 116.004 -65.9455 117.634L-72.2539 131.393L-66.2815 137.004L-51.3127 130.603C-50.5064 130.259 -49.6335 130.098 -48.7574 130.133C-47.8813 130.168 -47.0239 130.397 -46.2475 130.805C-43.1815 132.418 -40.8967 133.535 -39.4519 134.148C-37.9819 134.761 -35.1679 135.786 -31.0855 137.18C-30.2751 137.457 -29.5357 137.909 -28.92 138.505C-28.3044 139.1 -27.8277 139.824 -27.5239 140.624L-21.5767 156.341L-13.7983 156.173L-8.78352 142.279C-8.49671 141.486 -8.04088 140.765 -7.44762 140.166C-6.85437 139.567 -6.13792 139.105 -5.34793 138.81L3.36288 135.551C5.56367 134.736 8.23488 133.451 11.3513 131.687C12.2138 131.202 13.1842 130.942 14.1735 130.93C15.1628 130.919 16.1391 131.156 17.0129 131.62L30.2597 138.634L37.7105 131.989L31.1921 117.6C30.8573 116.861 30.6834 116.06 30.682 115.249C30.6805 114.438 30.8515 113.636 31.1837 112.896C32.7125 109.477 33.7457 106.898 34.2665 105.252C34.7789 103.639 35.3081 101.312 35.8205 98.322C35.9967 97.3063 36.4407 96.3559 37.1066 95.5689C37.7725 94.7819 38.6363 94.1867 39.6089 93.8448L53.4521 88.9308L54.0569 79.3548L40.4489 73.5252C39.7244 73.2168 39.0701 72.7644 38.5257 72.1955C37.9814 71.6266 37.5583 70.953 37.2821 70.2156C36.3116 67.538 35.2526 64.8934 34.1069 62.286C33.0221 60.0157 31.8451 57.7907 30.5789 55.6164C30.1402 54.8482 29.8853 53.9889 29.8343 53.1057C29.7833 52.2226 29.9375 51.3396 30.2849 50.526L36.3749 36.246L29.9573 29.61L17.4581 36.2292C16.6421 36.662 15.7359 36.8973 14.8125 36.9163C13.889 36.9353 12.974 36.7373 12.1409 36.3384C9.48783 35.0193 6.77446 33.8252 4.00967 32.76C1.65217 31.9683 -0.752014 31.3231 -3.18913 30.828C-4.15613 30.623 -5.05511 30.1754 -5.80157 29.5274C-6.54803 28.8794 -7.11746 28.0522 -7.45632 27.1236L-13.0675 11.5584L-13.0591 11.5668ZM-17.7967 47.3844C2.65728 47.3844 19.2473 63.7896 19.2473 84.0168C19.2473 104.244 2.65728 120.641 -17.7967 120.641C-38.2591 120.641 -54.8407 104.244 -54.8407 84.0168C-54.8407 63.7896 -38.2591 47.3928 -17.7967 47.3928V47.3844ZM-17.7967 58.9596C-31.7995 58.9596 -43.1479 70.1736 -43.1479 84.0168C-43.1479 97.86 -31.7995 109.082 -17.7967 109.082C-3.80232 109.082 7.54608 97.86 7.54608 84.0168C7.54608 70.1736 -3.79392 58.9596 -17.7967 58.9596Z" fill="#67A8D2"/>
</g>
<defs>
<clipPath id="clip0_186_73">
<rect width="168" height="168" fill="white" transform="translate(-10 144)"/>
</clipPath>
<clipPath id="clip1_186_73">
<rect width="168" height="168" fill="white" transform="translate(-102)"/>
</clipPath>
</defs>
</svg>
