<svg width="41" height="41" viewBox="0 0 41 41" fill="none" xmlns="http://www.w3.org/2000/svg">
<path d="M0.000250377 21.7016H11.3357H15.7366C17.3934 21.7016 18.7366 23.0447 18.7366 24.7016V38C18.7366 39.6568 17.3934 41 15.7366 41H3.00025C1.3434 41 0.000250377 39.6569 0.000250377 38V21.7016Z" fill="#67A8D2"/>
<path d="M14.6146 0.154782C2.84817 1.95347 -0.0309769 15.2688 0.000250377 21.7016H11.3357C11.5231 16.8301 12.2726 14.4881 13.4904 12.8018C14.7083 11.1156 16.3009 10.9282 17.5187 10.8345C18.493 10.7596 18.799 9.80401 18.8303 9.3356V1.46634C18.8303 0.566994 17.9559 0.154786 17.5187 0.0611C16.9566 -0.00135451 15.5889 -0.0700544 14.6146 0.154782Z" fill="#67A8D2"/>
<path d="M21.922 21.7016H33.2575H37.6584C39.3152 21.7016 40.6584 23.0447 40.6584 24.7016V38C40.6584 39.6568 39.3152 41 37.6584 41H24.922C23.2652 41 21.922 39.6569 21.922 38V21.7016Z" fill="#67A8D2"/>
<path d="M36.5364 0.154782C24.77 1.95347 21.8908 15.2688 21.922 21.7016H33.2575C33.4449 16.8301 34.1943 14.4881 35.4122 12.8018C36.6301 11.1156 38.2226 10.9282 39.4405 10.8345C40.4148 10.7596 40.7208 9.80401 40.7521 9.3356V1.46634C40.7521 0.566994 39.8777 0.154786 39.4405 0.0611C38.8784 -0.00135451 37.5107 -0.0700544 36.5364 0.154782Z" fill="#67A8D2"/>
</svg>
