<svg width="97" height="88" viewBox="0 0 97 88" fill="none" xmlns="http://www.w3.org/2000/svg">
<circle cx="53" cy="44" r="44" fill="url(#paint0_linear_42_25)"/>
<path fill-rule="evenodd" clip-rule="evenodd" d="M35.9182 47.1092L7.80465 39.9604C6.85354 39.5679 5.05204 38.2783 5.45486 36.2598C5.95838 33.7367 7.30112 33.3162 8.55994 33.3162H13.0078H41.5409C42.9396 31.4098 46.6601 27.4121 50.3526 26.672C50.2183 26.6047 50.2966 24.0087 50.3526 22.7191L17.7912 24.317C16.5884 24.2329 14.2162 23.5433 14.3505 21.4575C14.4848 19.3717 16.5324 18.9064 17.5395 18.9344L50.3526 20.3642V18.6821C50.4085 18.1214 50.8393 17 52.1149 17C53.3905 17 53.8213 18.1214 53.8773 18.6821V20.3642L87.11 18.6821C88.0331 18.8223 89.8794 19.5904 89.8794 21.5416C89.8794 23.4928 88.0331 24.1488 87.11 24.2329L53.8773 22.7191V26.1673C59.6398 25.8309 72.9441 26.7056 80.0606 32.8957C87.1771 39.0857 89.5717 44.7263 89.8794 46.7728C90.3549 50.4173 89.678 58.3624 83.1657 60.9864C76.6534 63.6104 69.5425 64.0422 66.8011 63.93H49.933C46.6041 63.9861 39.4429 62.8703 37.4288 57.9587C36.0189 54.9309 35.8343 49.4641 35.9182 47.1092ZM61.8498 35.587C62.3197 32.4247 65.2905 31.8584 66.7172 31.9705C79.1375 31.2977 86.8582 46.0159 85.9351 47.1092C85.1966 47.9839 82.7181 48.5951 81.5712 48.7913C77.515 48.9595 68.5802 49.3128 65.2905 49.38C62.0008 49.4473 61.1784 45.5954 61.1784 43.661C61.2064 42.2873 61.3798 38.7493 61.8498 35.587Z" fill="#1B567C"/>
<path fill-rule="evenodd" clip-rule="evenodd" d="M8.89562 45.5954C13.8085 45.5954 17.7912 41.604 17.7912 36.6803C17.7912 31.7567 13.8085 27.7653 8.89562 27.7653C3.98271 27.7653 0 31.7567 0 36.6803C0 41.604 3.98271 45.5954 8.89562 45.5954ZM8.8117 43.2405C12.3805 43.2405 15.2736 40.341 15.2736 36.7644C15.2736 33.1878 12.3805 30.2884 8.8117 30.2884C5.24289 30.2884 2.34979 33.1878 2.34979 36.7644C2.34979 40.341 5.24289 43.2405 8.8117 43.2405Z" fill="#1B567C"/>
<path d="M34.4076 67.5465H76.0324C78.3262 67.4904 83.2496 66.9746 84.5923 65.3598C85.9351 63.745 86.8302 63.7338 87.11 63.93C87.8093 64.3225 88.9395 65.5112 87.8653 67.126C86.7911 68.7408 83.8371 69.8173 82.4943 70.1537C80.0047 70.4621 72.7091 71.0621 63.4443 70.9948C54.1794 70.9275 40.0583 70.9667 34.1558 70.9948C33.6523 70.8266 32.662 70.221 32.7292 69.1445C32.7963 68.068 33.8761 67.6306 34.4076 67.5465Z" fill="#1B567C"/>
<defs>
<linearGradient id="paint0_linear_42_25" x1="53" y1="0" x2="53" y2="88" gradientUnits="userSpaceOnUse">
<stop stop-color="#67A8D2" stop-opacity="0.88"/>
<stop offset="1" stop-color="#67A8D2" stop-opacity="0"/>
</linearGradient>
</defs>
</svg>
