<svg width="92" height="88" viewBox="0 0 92 88" fill="none" xmlns="http://www.w3.org/2000/svg">
<circle cx="48" cy="44" r="44" fill="url(#paint0_linear_41_34)"/>
<path d="M27.8364 78.3126L23.9043 55.8666L0.393428 43.2511C-0.0161688 42.5957 -0.458534 41.2031 1.04878 40.8754C2.5561 40.5477 55.7437 29.5432 82.149 24.0819C82.4767 24.0546 83.1976 24.0983 83.4597 24.4915C83.7874 24.983 83.7055 25.5565 83.4597 26.2937C83.2631 26.8836 70.4345 61.6556 64.0448 78.9679C63.8264 79.5687 63.0618 80.5408 61.7511 79.6233C60.4404 78.7058 50.5554 72.2505 45.7768 69.1376L30.1302 79.7052C29.4475 80.0056 28.033 80.1476 27.8364 78.3126Z" fill="#262626"/>
<path fill-rule="evenodd" clip-rule="evenodd" d="M27.8364 78.2372L23.9043 55.7913L0.393428 43.1757C-0.0161688 42.5203 -0.458534 41.1277 1.04878 40.8C2.5561 40.4724 55.7437 29.4679 82.149 24.0066C82.4767 23.9792 83.1976 24.0229 83.4597 24.4162C83.7874 24.9077 83.7055 25.4811 83.4597 26.2184C83.2631 26.8082 70.4345 61.5803 64.0448 78.8926C63.8264 79.4933 63.0618 80.4654 61.7511 79.5479C60.4404 78.6304 50.5554 72.1752 45.7768 69.0622L30.1302 79.6298C29.4475 79.9302 28.033 80.0722 27.8364 78.2372ZM67.4854 34.4857L26.5257 55.7913L29.5567 72.6601L33.8166 59.4711L67.4854 34.4857ZM31.8505 75.1177L35.6188 62.584L43.1554 67.5811L31.8505 75.1177Z" fill="#1B567C"/>
<defs>
<linearGradient id="paint0_linear_41_34" x1="48" y1="0" x2="48" y2="88" gradientUnits="userSpaceOnUse">
<stop stop-color="#67A8D2" stop-opacity="0.88"/>
<stop offset="1" stop-color="#67A8D2" stop-opacity="0"/>
</linearGradient>
</defs>
</svg>
